<?xml version="1.0" encoding="utf-8"?>
<svg class="icon-rss" version="1.1" xmlns="http://www.w3.org/2000/svg" xmlns:xlink="http://www.w3.org/1999/xlink" x="0px" y="0px" viewBox="0 0 1000 1000" enable-background="new 0 0 1000 1000" xml:space="preserve" fill="#FFF">
<metadata> Svg Vector Icons : http://www.onlinewebfonts.com/icon </metadata>
<g><path d="M500,10C229.4,10,10,229.4,10,500s219.4,490,490,490c270.6,0,490-219.4,490-490S770.6,10,500,10z M305.9,743.4c-27.7,0-50.2-22.5-50.2-50.2c0-27.7,22.5-50.2,50.2-50.2s50.2,22.5,50.2,50.2C356.1,720.9,333.6,743.4,305.9,743.4z M506.5,744.4c0-138.7-112.9-251.6-251.5-251.6V386.8c197.6,0,357.6,160.2,357.6,357.6L506.5,744.4L506.5,744.4z M699.1,744.4c0-244.9-199.2-444.2-444.2-444.2v-106c303.9,0,550.2,246.4,550.2,550.2H699.1z"/></g>
</svg>
