<?xml version="1.0" encoding="UTF-8"?>
<svg width="16px" height="16px" viewBox="0 0 16 16" xmlns="http://www.w3.org/2000/svg" xmlns:xlink="http://www.w3.org/1999/xlink" version="1.1">
 <!-- Generated by Pixelmator Pro 2.3.3 -->
 <path id="Shape" d="M-0 16 L16 16 16 0 -0 0 Z" fill="#5a2673" fill-opacity="1" stroke="none"/>
 <path id="ï–" d="M12.232 8.634 C12.232 9.116 12.186 9.539 12.095 9.903 11.956 10.476 11.728 10.763 11.411 10.763 11.329 10.763 11.149 10.67 10.871 10.483 10.532 10.253 9.886 10.062 8.931 9.91 8.141 9.78 7.449 9.715 6.854 9.715 6.693 9.715 6.613 9.847 6.613 10.112 6.613 10.203 6.648 10.332 6.717 10.499 6.787 10.666 6.821 10.798 6.821 10.893 6.821 10.989 6.877 11.095 6.987 11.212 7.098 11.329 7.153 11.423 7.153 11.492 7.153 11.509 7.148 11.535 7.137 11.57 7.126 11.605 7.121 11.631 7.121 11.648 7.121 11.709 7.172 11.796 7.274 11.909 7.376 12.022 7.427 12.119 7.427 12.202 7.427 12.241 7.411 12.291 7.378 12.351 7.346 12.412 7.329 12.46 7.329 12.495 7.329 12.547 7.356 12.606 7.411 12.674 7.465 12.741 7.492 12.788 7.492 12.814 7.492 12.892 7.388 12.931 7.18 12.931 6.719 12.931 6.396 12.796 6.209 12.527 6.097 12.362 5.986 12.017 5.877 11.492 5.678 10.511 5.333 10.021 4.842 10.021 4.821 10.021 4.792 10.024 4.758 10.03 4.723 10.037 4.697 10.04 4.68 10.04 4.124 10.04 3.846 9.532 3.846 8.517 3.846 7.935 4.131 7.516 4.699 7.26 4.994 7.152 5.435 6.98 6.021 6.746 6.637 6.485 7.312 6.086 8.045 5.548 8.736 5.049 9.219 4.621 9.497 4.265 9.614 3.667 9.851 3.367 10.207 3.367 10.632 3.367 11.042 3.836 11.437 4.773 11.706 5.407 11.908 6.073 12.043 6.772 12.169 7.401 12.232 8.022 12.232 8.634 Z M4.224 9.969 C3.755 9.938 3.423 9.877 3.228 9.786 2.92 9.634 2.765 9.359 2.765 8.959 2.765 8.565 2.891 8.272 3.143 8.081 3.152 8.072 3.443 7.918 4.015 7.618 3.807 7.848 3.703 8.2 3.703 8.673 3.703 9.246 3.877 9.678 4.224 9.969 Z M10.571 8.198 C10.571 7.738 10.493 7.306 10.337 6.902 10.159 6.451 9.918 6.134 9.614 5.952 9.784 7.497 10.04 8.656 10.383 9.428 10.509 9.046 10.571 8.636 10.571 8.198 Z M10.565 10.092 C10.179 9.511 9.873 8.775 9.647 7.885 9.439 7.065 9.335 6.273 9.335 5.509 L9.426 4.767 C9.131 5.144 8.729 5.498 8.221 5.828 7.765 6.101 7.308 6.377 6.847 6.655 6.309 6.989 6.04 7.377 6.04 7.82 6.04 8.206 6.11 8.541 6.249 8.823 6.422 9.17 6.678 9.372 7.017 9.428 7.043 9.433 7.284 9.443 7.739 9.461 8.816 9.504 9.758 9.715 10.565 10.092 Z M3.735 9.695 C3.566 9.222 3.482 8.851 3.482 8.582 3.482 8.395 3.505 8.237 3.553 8.107 L3.41 8.146 C3.354 8.345 3.325 8.558 3.325 8.784 3.325 8.97 3.401 9.274 3.553 9.695 Z M3.377 9.656 C3.221 9.283 3.143 9.016 3.143 8.855 3.143 8.695 3.16 8.495 3.195 8.256 L3.013 8.38 C2.983 8.554 2.967 8.716 2.967 8.868 2.967 9.068 3.052 9.311 3.221 9.597 Z" fill="#d7dadc" fill-opacity="1" stroke="none"/>
 <path id="{" d="M0.978 4.999 C0.978 4.871 0.956 4.761 0.913 4.667 0.87 4.574 0.817 4.496 0.753 4.434 0.69 4.372 0.621 4.326 0.549 4.296 0.476 4.267 0.412 4.252 0.356 4.252 L0.356 3.941 C0.412 3.941 0.476 3.928 0.549 3.903 0.621 3.878 0.69 3.836 0.753 3.779 0.817 3.721 0.87 3.646 0.913 3.554 0.956 3.462 0.978 3.348 0.978 3.212 L0.978 2.759 C0.978 2.652 0.995 2.554 1.029 2.465 1.063 2.376 1.11 2.299 1.171 2.234 1.232 2.169 1.304 2.118 1.389 2.081 1.473 2.044 1.566 2.025 1.667 2.025 L2.311 2.025 2.311 2.336 1.822 2.336 C1.636 2.336 1.506 2.381 1.433 2.47 1.361 2.559 1.324 2.69 1.324 2.865 L1.324 3.296 C1.324 3.418 1.302 3.526 1.258 3.621 1.213 3.716 1.16 3.795 1.098 3.859 1.036 3.922 0.972 3.973 0.907 4.01 0.841 4.047 0.788 4.068 0.747 4.074 L0.747 4.101 C0.785 4.107 0.837 4.13 0.902 4.17 0.967 4.21 1.031 4.264 1.093 4.334 1.156 4.404 1.21 4.486 1.256 4.581 1.301 4.676 1.324 4.781 1.324 4.896 L1.324 5.323 C1.324 5.504 1.363 5.637 1.44 5.723 1.517 5.809 1.646 5.852 1.827 5.852 L2.311 5.852 2.311 6.163 1.667 6.163 C1.459 6.163 1.293 6.101 1.167 5.979 1.041 5.856 0.978 5.674 0.978 5.434 Z" fill="#d7dadc" fill-opacity="1" stroke="none"/>
 <path id="}" d="M15.022 13.434 C15.022 13.674 14.959 13.856 14.833 13.979 14.707 14.101 14.541 14.163 14.333 14.163 L13.689 14.163 13.689 13.852 14.173 13.852 C14.354 13.852 14.483 13.809 14.56 13.723 14.637 13.637 14.676 13.504 14.676 13.323 L14.676 12.896 C14.676 12.781 14.698 12.676 14.742 12.581 14.787 12.486 14.84 12.404 14.902 12.334 14.964 12.264 15.028 12.21 15.093 12.17 15.159 12.13 15.212 12.107 15.253 12.101 L15.253 12.074 C15.212 12.068 15.159 12.047 15.093 12.01 15.028 11.973 14.964 11.922 14.902 11.859 14.84 11.795 14.787 11.716 14.742 11.621 14.698 11.526 14.676 11.418 14.676 11.296 L14.676 10.865 C14.676 10.69 14.639 10.559 14.567 10.47 14.494 10.381 14.364 10.336 14.178 10.336 L13.689 10.336 13.689 10.025 14.333 10.025 C14.434 10.025 14.527 10.044 14.611 10.081 14.696 10.118 14.768 10.169 14.829 10.234 14.89 10.299 14.937 10.376 14.971 10.465 15.005 10.554 15.022 10.652 15.022 10.759 L15.022 11.212 C15.022 11.348 15.044 11.462 15.087 11.554 15.13 11.646 15.183 11.721 15.247 11.779 15.31 11.836 15.379 11.878 15.451 11.903 15.524 11.928 15.588 11.941 15.644 11.941 L15.644 12.252 C15.588 12.252 15.524 12.267 15.451 12.296 15.379 12.326 15.31 12.372 15.247 12.434 15.183 12.496 15.13 12.574 15.087 12.667 15.044 12.761 15.022 12.871 15.022 12.999 Z" fill="#d7dadc" fill-opacity="1" stroke="none"/>
 <path id="blog-|-/dev/web" d="M12.67 14.4 L12.907 14.4 12.907 14.781 12.914 14.781 C12.94 14.748 12.973 14.723 13.013 14.705 13.054 14.687 13.098 14.679 13.145 14.679 13.363 14.679 13.471 14.804 13.471 15.055 13.471 15.182 13.436 15.28 13.366 15.347 13.296 15.415 13.196 15.449 13.067 15.449 13.005 15.449 12.95 15.443 12.901 15.431 12.851 15.419 12.815 15.405 12.793 15.39 L12.793 14.499 12.67 14.499 Z M13.13 14.778 C13.071 14.778 13.023 14.795 12.987 14.828 12.95 14.862 12.923 14.909 12.907 14.97 L12.907 15.311 C12.929 15.323 12.957 15.332 12.988 15.339 13.02 15.346 13.053 15.35 13.087 15.35 13.127 15.35 13.163 15.344 13.195 15.333 13.227 15.321 13.254 15.303 13.277 15.279 13.3 15.255 13.317 15.224 13.33 15.187 13.342 15.149 13.348 15.105 13.348 15.053 13.348 15.016 13.344 14.98 13.336 14.947 13.328 14.913 13.316 14.884 13.299 14.859 13.281 14.833 13.259 14.814 13.231 14.799 13.203 14.785 13.17 14.778 13.13 14.778 Z M12.561 15.344 C12.544 15.359 12.523 15.374 12.499 15.388 12.474 15.402 12.448 15.414 12.419 15.424 12.391 15.434 12.361 15.441 12.33 15.447 12.299 15.452 12.267 15.455 12.236 15.455 12.176 15.455 12.124 15.446 12.079 15.427 12.033 15.409 11.995 15.383 11.964 15.349 11.934 15.315 11.911 15.274 11.895 15.227 11.879 15.179 11.871 15.126 11.871 15.067 11.871 15.004 11.88 14.949 11.897 14.901 11.914 14.852 11.939 14.812 11.972 14.779 12.004 14.747 12.044 14.722 12.09 14.704 12.137 14.687 12.189 14.679 12.246 14.679 12.287 14.679 12.328 14.684 12.369 14.695 12.409 14.706 12.445 14.726 12.476 14.756 12.507 14.786 12.531 14.828 12.548 14.881 12.565 14.934 12.571 15.002 12.566 15.086 L11.993 15.086 C11.993 15.175 12.017 15.241 12.064 15.285 12.112 15.329 12.176 15.351 12.256 15.351 12.283 15.351 12.309 15.348 12.336 15.341 12.362 15.335 12.387 15.327 12.41 15.319 12.434 15.31 12.455 15.3 12.473 15.289 12.492 15.278 12.506 15.268 12.516 15.259 Z M12.249 14.776 C12.216 14.776 12.185 14.78 12.156 14.787 12.127 14.794 12.101 14.805 12.079 14.821 12.057 14.838 12.039 14.859 12.024 14.885 12.01 14.911 12.001 14.944 11.997 14.982 L12.458 14.982 C12.453 14.917 12.432 14.866 12.395 14.83 12.358 14.794 12.309 14.776 12.249 14.776 Z M11.391 14.859 L11.539 15.271 11.55 15.271 11.655 14.696 11.763 14.696 11.618 15.437 11.486 15.437 11.344 15.028 11.339 15.028 11.191 15.437 11.059 15.437 10.904 14.696 11.018 14.696 11.138 15.274 11.147 15.274 11.29 14.859 Z M10.668 14.382 L10.761 14.424 10.221 15.644 10.127 15.603 Z M9.559 15.293 L9.575 15.293 9.807 14.696 9.936 14.696 9.624 15.437 9.493 15.437 9.175 14.696 9.311 14.696 Z M9.006 15.344 C8.988 15.359 8.967 15.374 8.943 15.388 8.919 15.402 8.892 15.414 8.864 15.424 8.835 15.434 8.805 15.441 8.774 15.447 8.743 15.452 8.712 15.455 8.68 15.455 8.621 15.455 8.568 15.446 8.523 15.427 8.477 15.409 8.439 15.383 8.409 15.349 8.378 15.315 8.355 15.274 8.339 15.227 8.323 15.179 8.316 15.126 8.316 15.067 8.316 15.004 8.324 14.949 8.341 14.901 8.359 14.852 8.384 14.812 8.416 14.779 8.449 14.747 8.488 14.722 8.535 14.704 8.581 14.687 8.633 14.679 8.69 14.679 8.732 14.679 8.773 14.684 8.813 14.695 8.854 14.706 8.89 14.726 8.921 14.756 8.952 14.786 8.976 14.828 8.993 14.881 9.009 14.934 9.015 15.002 9.01 15.086 L8.437 15.086 C8.437 15.175 8.461 15.241 8.509 15.285 8.557 15.329 8.621 15.351 8.701 15.351 8.727 15.351 8.754 15.348 8.78 15.341 8.806 15.335 8.831 15.327 8.855 15.319 8.879 15.31 8.899 15.3 8.918 15.289 8.936 15.278 8.95 15.268 8.96 15.259 Z M8.693 14.776 C8.661 14.776 8.63 14.78 8.601 14.787 8.572 14.794 8.546 14.805 8.524 14.821 8.501 14.838 8.483 14.859 8.469 14.885 8.455 14.911 8.445 14.944 8.441 14.982 L8.902 14.982 C8.897 14.917 8.876 14.866 8.839 14.83 8.802 14.794 8.754 14.776 8.693 14.776 Z M7.85 14.4 L8.09 14.4 8.09 15.184 C8.09 15.193 8.091 15.204 8.092 15.217 8.093 15.23 8.094 15.244 8.096 15.259 8.097 15.274 8.099 15.289 8.101 15.303 8.103 15.317 8.105 15.33 8.107 15.341 L8.206 15.341 8.206 15.437 8.009 15.437 7.994 15.323 7.988 15.323 C7.966 15.361 7.934 15.392 7.891 15.417 7.848 15.442 7.799 15.455 7.742 15.455 7.631 15.455 7.548 15.423 7.496 15.361 7.443 15.298 7.416 15.201 7.416 15.068 7.416 15.006 7.425 14.951 7.443 14.903 7.461 14.855 7.486 14.815 7.519 14.783 7.552 14.751 7.592 14.726 7.639 14.71 7.685 14.693 7.737 14.684 7.794 14.684 7.815 14.684 7.833 14.685 7.85 14.686 7.866 14.687 7.881 14.688 7.895 14.69 7.909 14.692 7.922 14.695 7.934 14.699 7.946 14.702 7.96 14.706 7.975 14.71 L7.975 14.499 7.85 14.499 Z M7.761 15.356 C7.822 15.356 7.869 15.34 7.904 15.309 7.938 15.278 7.962 15.231 7.975 15.169 L7.975 14.825 C7.953 14.81 7.929 14.799 7.901 14.793 7.874 14.786 7.839 14.782 7.794 14.782 7.715 14.782 7.653 14.805 7.607 14.851 7.562 14.897 7.539 14.969 7.539 15.068 7.539 15.109 7.543 15.146 7.55 15.181 7.558 15.217 7.57 15.247 7.587 15.273 7.605 15.298 7.628 15.319 7.656 15.333 7.685 15.348 7.72 15.356 7.761 15.356 Z M7.113 14.382 L7.206 14.424 6.665 15.644 6.572 15.603 Z M5.061 14.4 L5.161 14.4 5.161 15.63 5.061 15.63 Z M3.665 15.474 C3.665 15.521 3.656 15.561 3.639 15.596 3.621 15.631 3.596 15.66 3.565 15.683 3.534 15.706 3.498 15.723 3.456 15.734 3.415 15.745 3.37 15.751 3.321 15.751 3.263 15.751 3.212 15.745 3.169 15.733 3.125 15.721 3.088 15.706 3.056 15.687 L3.113 15.582 C3.121 15.59 3.133 15.598 3.147 15.605 3.162 15.613 3.178 15.619 3.197 15.626 3.216 15.632 3.236 15.637 3.257 15.641 3.278 15.645 3.299 15.647 3.32 15.647 3.363 15.647 3.4 15.643 3.429 15.636 3.458 15.628 3.481 15.615 3.499 15.599 3.517 15.582 3.53 15.56 3.538 15.533 3.546 15.507 3.55 15.474 3.55 15.436 L3.55 15.353 3.544 15.353 C3.521 15.385 3.492 15.41 3.456 15.428 3.421 15.446 3.375 15.455 3.319 15.455 3.206 15.455 3.123 15.423 3.07 15.361 3.017 15.298 2.991 15.201 2.991 15.068 2.991 14.942 3.025 14.846 3.092 14.781 3.159 14.717 3.259 14.684 3.391 14.684 3.452 14.684 3.504 14.689 3.547 14.697 3.59 14.705 3.63 14.716 3.665 14.729 Z M3.335 15.356 C3.395 15.356 3.443 15.34 3.477 15.309 3.512 15.278 3.536 15.23 3.55 15.166 L3.55 14.815 C3.506 14.794 3.445 14.784 3.367 14.784 3.288 14.784 3.226 14.807 3.181 14.853 3.135 14.9 3.113 14.971 3.113 15.067 3.113 15.109 3.117 15.148 3.124 15.183 3.132 15.218 3.145 15.248 3.162 15.274 3.179 15.3 3.202 15.32 3.23 15.334 3.259 15.348 3.293 15.356 3.335 15.356 Z M2.084 15.067 C2.084 14.947 2.116 14.853 2.178 14.783 2.24 14.713 2.329 14.679 2.444 14.679 2.507 14.679 2.56 14.689 2.605 14.709 2.65 14.729 2.687 14.757 2.717 14.791 2.747 14.826 2.769 14.867 2.783 14.914 2.797 14.961 2.804 15.012 2.804 15.067 2.804 15.126 2.797 15.179 2.781 15.227 2.765 15.275 2.742 15.316 2.711 15.35 2.681 15.383 2.643 15.409 2.598 15.427 2.553 15.446 2.502 15.455 2.444 15.455 2.383 15.455 2.33 15.445 2.284 15.424 2.239 15.404 2.201 15.377 2.172 15.342 2.142 15.308 2.12 15.267 2.106 15.219 2.092 15.172 2.084 15.121 2.084 15.067 Z M2.207 15.067 C2.207 15.101 2.212 15.136 2.22 15.17 2.228 15.205 2.242 15.236 2.261 15.264 2.279 15.291 2.304 15.314 2.334 15.33 2.364 15.347 2.401 15.356 2.444 15.356 2.523 15.356 2.583 15.331 2.623 15.282 2.663 15.233 2.683 15.161 2.683 15.067 2.683 15.031 2.679 14.996 2.67 14.962 2.662 14.928 2.648 14.897 2.629 14.87 2.61 14.842 2.585 14.82 2.555 14.803 2.525 14.786 2.488 14.778 2.444 14.778 2.365 14.778 2.306 14.802 2.267 14.85 2.227 14.899 2.207 14.971 2.207 15.067 Z M1.287 14.4 L1.533 14.4 1.533 15.188 C1.533 15.248 1.543 15.291 1.564 15.316 1.584 15.34 1.614 15.353 1.653 15.353 1.681 15.353 1.707 15.348 1.733 15.338 1.758 15.328 1.786 15.311 1.816 15.287 L1.87 15.369 C1.854 15.383 1.837 15.395 1.818 15.406 1.799 15.417 1.78 15.426 1.76 15.433 1.74 15.441 1.721 15.446 1.701 15.45 1.681 15.454 1.663 15.456 1.646 15.456 1.609 15.456 1.577 15.452 1.548 15.442 1.519 15.433 1.496 15.418 1.476 15.397 1.457 15.376 1.443 15.349 1.433 15.315 1.423 15.281 1.418 15.239 1.418 15.188 L1.418 14.499 1.287 14.499 Z M0.225 14.4 L0.462 14.4 0.462 14.781 0.47 14.781 C0.495 14.748 0.528 14.723 0.569 14.705 0.609 14.687 0.653 14.679 0.701 14.679 0.918 14.679 1.027 14.804 1.027 15.055 1.027 15.182 0.992 15.28 0.921 15.347 0.851 15.415 0.752 15.449 0.622 15.449 0.561 15.449 0.506 15.443 0.456 15.431 0.407 15.419 0.371 15.405 0.348 15.39 L0.348 14.499 0.225 14.499 Z M0.686 14.778 C0.627 14.778 0.579 14.795 0.542 14.828 0.506 14.862 0.479 14.909 0.462 14.97 L0.462 15.311 C0.485 15.323 0.512 15.332 0.544 15.339 0.575 15.346 0.608 15.35 0.643 15.35 0.683 15.35 0.718 15.344 0.75 15.333 0.783 15.321 0.81 15.303 0.833 15.279 0.855 15.255 0.873 15.224 0.885 15.187 0.897 15.149 0.904 15.105 0.904 15.053 0.904 15.016 0.9 14.98 0.892 14.947 0.884 14.913 0.871 14.884 0.854 14.859 0.837 14.833 0.814 14.814 0.787 14.799 0.759 14.785 0.725 14.778 0.686 14.778 Z" fill="#d7dadc" fill-opacity="1" stroke="none"/>
 <path id="#!/web" d="M4.67 0.474 L4.907 0.474 4.907 0.855 4.914 0.855 C4.94 0.822 4.973 0.797 5.013 0.779 5.054 0.761 5.098 0.753 5.145 0.753 5.363 0.753 5.471 0.878 5.471 1.129 5.471 1.256 5.436 1.354 5.366 1.421 5.296 1.489 5.196 1.523 5.067 1.523 5.005 1.523 4.95 1.517 4.901 1.505 4.851 1.493 4.815 1.479 4.793 1.464 L4.793 0.573 4.67 0.573 Z M5.13 0.852 C5.071 0.852 5.023 0.869 4.987 0.902 4.95 0.936 4.923 0.983 4.907 1.044 L4.907 1.385 C4.929 1.397 4.957 1.406 4.988 1.413 5.02 1.42 5.053 1.424 5.087 1.424 5.127 1.424 5.163 1.418 5.195 1.407 5.227 1.395 5.254 1.377 5.277 1.353 5.3 1.329 5.317 1.298 5.33 1.261 5.342 1.223 5.348 1.179 5.348 1.127 5.348 1.09 5.344 1.054 5.336 1.021 5.328 0.987 5.316 0.958 5.299 0.933 5.281 0.907 5.259 0.888 5.231 0.873 5.203 0.859 5.17 0.852 5.13 0.852 Z M4.561 1.418 C4.544 1.434 4.523 1.448 4.499 1.462 4.474 1.476 4.448 1.488 4.419 1.498 4.391 1.508 4.361 1.515 4.33 1.521 4.299 1.526 4.267 1.529 4.236 1.529 4.176 1.529 4.124 1.52 4.079 1.501 4.033 1.483 3.995 1.457 3.964 1.423 3.934 1.389 3.911 1.348 3.895 1.301 3.879 1.253 3.871 1.2 3.871 1.141 3.871 1.079 3.88 1.023 3.897 0.975 3.914 0.926 3.939 0.886 3.972 0.853 4.004 0.821 4.044 0.796 4.09 0.779 4.137 0.761 4.189 0.753 4.246 0.753 4.287 0.753 4.328 0.758 4.369 0.769 4.409 0.78 4.445 0.8 4.476 0.83 4.507 0.861 4.531 0.902 4.548 0.955 4.565 1.008 4.571 1.076 4.566 1.16 L3.993 1.16 C3.993 1.249 4.017 1.315 4.064 1.359 4.112 1.403 4.176 1.425 4.256 1.425 4.283 1.425 4.309 1.422 4.336 1.416 4.362 1.409 4.387 1.401 4.41 1.393 4.434 1.384 4.455 1.374 4.473 1.363 4.492 1.352 4.506 1.342 4.516 1.333 Z M4.249 0.85 C4.216 0.85 4.185 0.854 4.156 0.861 4.127 0.868 4.101 0.879 4.079 0.896 4.057 0.912 4.039 0.933 4.024 0.959 4.01 0.985 4.001 1.018 3.997 1.056 L4.458 1.056 C4.453 0.991 4.432 0.941 4.395 0.904 4.358 0.868 4.309 0.85 4.249 0.85 Z M3.391 0.933 L3.539 1.345 3.55 1.345 3.655 0.77 3.763 0.77 3.618 1.511 3.486 1.511 3.344 1.102 3.339 1.102 3.191 1.511 3.059 1.511 2.904 0.77 3.018 0.77 3.138 1.348 3.147 1.348 3.29 0.933 Z M2.668 0.456 L2.761 0.498 2.221 1.719 2.127 1.677 Z M1.495 0.474 L1.618 0.474 1.618 0.988 1.593 1.249 1.52 1.249 1.495 0.988 Z M1.47 1.443 C1.47 1.416 1.477 1.395 1.493 1.38 1.508 1.365 1.528 1.357 1.554 1.357 1.581 1.357 1.602 1.365 1.618 1.38 1.634 1.395 1.641 1.416 1.641 1.443 1.641 1.469 1.634 1.489 1.618 1.505 1.602 1.521 1.581 1.529 1.554 1.529 1.528 1.529 1.508 1.521 1.493 1.505 1.477 1.489 1.47 1.469 1.47 1.443 Z M0.729 1.178 L0.514 1.178 0.456 1.425 0.354 1.425 0.412 1.178 0.267 1.178 0.287 1.083 0.434 1.083 0.48 0.889 0.341 0.889 0.361 0.794 0.502 0.794 0.559 0.56 0.661 0.56 0.604 0.794 0.819 0.794 0.876 0.56 0.978 0.56 0.921 0.794 1.065 0.794 1.041 0.889 0.899 0.889 0.853 1.083 0.991 1.083 0.967 1.178 0.831 1.178 0.773 1.425 0.671 1.425 Z M0.536 1.083 L0.751 1.083 0.797 0.889 0.582 0.889 Z" fill="#d7dadc" fill-opacity="1" stroke="none"/>
</svg>
