<?xml version="1.0" encoding="UTF-8"?>
<svg width="32px" height="32px" viewBox="0 0 32 32" xmlns="http://www.w3.org/2000/svg" xmlns:xlink="http://www.w3.org/1999/xlink" version="1.1">
 <!-- Generated by Pixelmator Pro 2.3.3 -->
 <path id="Shape" d="M-0 32 L32 32 32 0 -0 0 Z" fill="#5a2673" fill-opacity="1" stroke="none"/>
 <path id="ï–" d="M24.463 17.268 C24.463 18.231 24.372 19.078 24.19 19.807 23.912 20.953 23.456 21.526 22.823 21.526 22.658 21.526 22.297 21.339 21.742 20.966 21.065 20.506 19.771 20.124 17.862 19.82 16.282 19.56 14.897 19.429 13.708 19.429 13.387 19.429 13.226 19.694 13.226 20.224 13.226 20.406 13.296 20.664 13.435 20.998 13.574 21.333 13.643 21.595 13.643 21.786 13.643 21.977 13.754 22.19 13.975 22.424 14.196 22.659 14.307 22.845 14.307 22.984 14.307 23.019 14.296 23.071 14.274 23.14 14.253 23.21 14.242 23.262 14.242 23.297 14.242 23.418 14.344 23.592 14.548 23.817 14.752 24.043 14.854 24.238 14.854 24.403 14.854 24.482 14.821 24.581 14.756 24.703 14.691 24.824 14.659 24.92 14.659 24.989 14.659 25.093 14.713 25.213 14.821 25.347 14.93 25.482 14.984 25.575 14.984 25.627 14.984 25.783 14.776 25.862 14.359 25.862 13.439 25.862 12.792 25.593 12.419 25.054 12.193 24.725 11.972 24.034 11.755 22.984 11.356 21.022 10.666 20.041 9.685 20.041 9.641 20.041 9.585 20.048 9.515 20.061 9.446 20.074 9.394 20.081 9.359 20.081 8.248 20.081 7.693 19.065 7.693 17.034 7.693 15.87 8.261 15.033 9.398 14.521 9.989 14.303 10.87 13.961 12.041 13.492 13.274 12.971 14.624 12.173 16.091 11.096 17.471 10.098 18.439 9.243 18.994 8.531 19.229 7.333 19.702 6.734 20.414 6.734 21.265 6.734 22.085 7.671 22.875 9.547 23.413 10.814 23.817 12.146 24.086 13.544 24.337 14.803 24.463 16.044 24.463 17.268 Z M8.448 19.937 C7.51 19.877 6.846 19.755 6.455 19.573 5.839 19.269 5.531 18.718 5.531 17.919 5.531 17.129 5.783 16.543 6.286 16.161 6.303 16.144 6.885 15.836 8.031 15.237 7.614 15.697 7.406 16.4 7.406 17.346 7.406 18.492 7.753 19.356 8.448 19.937 Z M21.143 16.395 C21.143 15.475 20.987 14.612 20.674 13.804 20.318 12.902 19.837 12.268 19.229 11.903 19.567 14.994 20.079 17.311 20.765 18.857 21.017 18.093 21.143 17.272 21.143 16.395 Z M21.13 20.185 C20.357 19.021 19.745 17.55 19.294 15.771 18.877 14.13 18.669 12.546 18.669 11.018 L18.851 9.534 C18.261 10.289 17.458 10.996 16.442 11.656 15.531 12.203 14.615 12.754 13.695 13.31 12.619 13.978 12.081 14.755 12.081 15.64 12.081 16.413 12.219 17.081 12.497 17.646 12.844 18.34 13.357 18.744 14.034 18.857 14.086 18.865 14.567 18.887 15.479 18.922 17.632 19.008 19.515 19.429 21.13 20.185 Z M7.471 19.39 C7.133 18.444 6.963 17.702 6.963 17.164 6.963 16.79 7.011 16.474 7.106 16.213 L6.82 16.291 C6.707 16.691 6.651 17.116 6.651 17.567 6.651 17.941 6.803 18.548 7.106 19.39 Z M6.755 19.312 C6.442 18.566 6.286 18.032 6.286 17.711 6.286 17.389 6.321 16.99 6.39 16.513 L6.026 16.76 C5.965 17.107 5.935 17.433 5.935 17.737 5.935 18.136 6.104 18.622 6.442 19.195 Z" fill="#d7dadc" fill-opacity="1" stroke="none"/>
 <path id="{" d="M1.955 9.997 C1.955 9.742 1.913 9.522 1.827 9.335 1.741 9.148 1.634 8.993 1.507 8.868 1.379 8.744 1.243 8.652 1.098 8.593 0.953 8.533 0.824 8.504 0.711 8.504 L0.711 7.882 C0.824 7.882 0.953 7.856 1.098 7.806 1.243 7.755 1.379 7.673 1.507 7.557 1.634 7.442 1.741 7.292 1.827 7.108 1.913 6.925 1.955 6.696 1.955 6.424 L1.955 5.517 C1.955 5.304 1.99 5.108 2.058 4.93 2.126 4.753 2.221 4.598 2.342 4.468 2.464 4.338 2.609 4.235 2.778 4.162 2.947 4.087 3.132 4.05 3.333 4.05 L4.622 4.05 4.622 4.673 3.645 4.673 C3.271 4.673 3.012 4.762 2.867 4.939 2.722 5.117 2.649 5.381 2.649 5.73 L2.649 6.593 C2.649 6.835 2.605 7.052 2.515 7.242 2.427 7.431 2.32 7.59 2.195 7.717 2.071 7.845 1.944 7.945 1.813 8.019 1.683 8.093 1.576 8.136 1.493 8.148 L1.493 8.202 C1.57 8.213 1.674 8.259 1.805 8.339 1.935 8.419 2.062 8.529 2.187 8.668 2.311 8.807 2.419 8.972 2.511 9.162 2.603 9.351 2.649 9.562 2.649 9.793 L2.649 10.646 C2.649 11.007 2.726 11.274 2.88 11.446 3.034 11.618 3.292 11.704 3.653 11.704 L4.622 11.704 4.622 12.326 3.333 12.326 C2.918 12.326 2.585 12.203 2.333 11.957 2.082 11.711 1.955 11.348 1.955 10.868 Z" fill="#d7dadc" fill-opacity="1" stroke="none"/>
 <path id="}" d="M30.045 26.868 C30.045 27.348 29.918 27.711 29.667 27.957 29.415 28.203 29.082 28.326 28.667 28.326 L27.378 28.326 27.378 27.704 28.347 27.704 C28.708 27.704 28.966 27.618 29.12 27.446 29.274 27.274 29.351 27.007 29.351 26.646 L29.351 25.793 C29.351 25.562 29.395 25.351 29.485 25.162 29.573 24.972 29.68 24.807 29.805 24.668 29.929 24.529 30.056 24.419 30.187 24.339 30.317 24.259 30.424 24.213 30.507 24.202 L30.507 24.148 C30.424 24.136 30.317 24.093 30.187 24.019 30.056 23.945 29.929 23.845 29.805 23.717 29.68 23.59 29.573 23.431 29.485 23.242 29.395 23.052 29.351 22.835 29.351 22.593 L29.351 21.73 C29.351 21.381 29.278 21.117 29.133 20.939 28.988 20.762 28.729 20.673 28.355 20.673 L27.378 20.673 27.378 20.05 28.667 20.05 C28.868 20.05 29.053 20.087 29.222 20.162 29.391 20.235 29.536 20.338 29.658 20.468 29.779 20.598 29.874 20.753 29.942 20.93 30.01 21.108 30.045 21.304 30.045 21.517 L30.045 22.424 C30.045 22.696 30.087 22.925 30.173 23.108 30.259 23.292 30.366 23.442 30.493 23.557 30.621 23.673 30.757 23.755 30.902 23.806 31.047 23.856 31.176 23.882 31.289 23.882 L31.289 24.504 C31.176 24.504 31.047 24.533 30.902 24.593 30.757 24.652 30.621 24.744 30.493 24.868 30.366 24.993 30.259 25.148 30.173 25.335 30.087 25.522 30.045 25.742 30.045 25.997 Z" fill="#d7dadc" fill-opacity="1" stroke="none"/>
 <path id="blog-|-/dev/web" d="M25.339 28.8 L25.813 28.8 25.813 29.562 25.828 29.562 C25.879 29.496 25.946 29.446 26.027 29.41 26.108 29.375 26.195 29.357 26.29 29.357 26.725 29.357 26.942 29.608 26.942 30.11 26.942 30.365 26.872 30.559 26.732 30.695 26.592 30.83 26.392 30.898 26.133 30.898 26.011 30.898 25.9 30.886 25.802 30.862 25.703 30.838 25.631 30.811 25.585 30.779 L25.585 28.998 25.339 28.998 Z M26.261 29.555 C26.142 29.555 26.046 29.589 25.973 29.656 25.9 29.723 25.847 29.818 25.813 29.941 L25.813 30.622 C25.859 30.646 25.913 30.665 25.976 30.678 26.039 30.692 26.106 30.699 26.175 30.699 26.254 30.699 26.325 30.688 26.39 30.665 26.454 30.642 26.509 30.607 26.554 30.558 26.599 30.51 26.635 30.448 26.659 30.373 26.684 30.298 26.696 30.209 26.696 30.107 26.696 30.032 26.688 29.961 26.673 29.893 26.657 29.826 26.632 29.767 26.597 29.717 26.562 29.667 26.518 29.627 26.462 29.598 26.407 29.57 26.34 29.555 26.261 29.555 Z M25.123 30.687 C25.087 30.719 25.045 30.749 24.997 30.776 24.949 30.804 24.896 30.828 24.838 30.847 24.781 30.867 24.722 30.882 24.659 30.893 24.597 30.904 24.534 30.91 24.471 30.91 24.353 30.91 24.248 30.891 24.157 30.855 24.066 30.818 23.99 30.766 23.929 30.698 23.868 30.63 23.821 30.548 23.79 30.453 23.758 30.358 23.742 30.252 23.742 30.133 23.742 30.009 23.759 29.898 23.794 29.802 23.829 29.705 23.878 29.624 23.944 29.558 24.009 29.493 24.088 29.443 24.181 29.409 24.274 29.374 24.377 29.357 24.492 29.357 24.575 29.357 24.657 29.368 24.738 29.39 24.819 29.411 24.89 29.452 24.953 29.513 25.015 29.573 25.063 29.656 25.096 29.762 25.13 29.867 25.142 30.004 25.132 30.172 L23.985 30.172 C23.985 30.35 24.033 30.482 24.129 30.57 24.225 30.658 24.353 30.702 24.513 30.702 24.566 30.702 24.619 30.696 24.671 30.683 24.723 30.67 24.773 30.655 24.821 30.637 24.868 30.619 24.91 30.599 24.947 30.578 24.983 30.556 25.011 30.536 25.031 30.518 Z M24.498 29.553 C24.433 29.553 24.371 29.559 24.313 29.573 24.254 29.587 24.203 29.61 24.158 29.643 24.114 29.675 24.078 29.718 24.049 29.77 24.02 29.823 24.002 29.887 23.994 29.965 L24.915 29.965 C24.906 29.834 24.864 29.733 24.79 29.661 24.715 29.589 24.618 29.553 24.498 29.553 Z M22.782 29.718 L23.078 30.542 23.099 30.542 23.31 29.393 23.526 29.393 23.235 30.874 22.972 30.874 22.687 30.056 22.678 30.056 22.382 30.874 22.118 30.874 21.807 29.393 22.035 29.393 22.275 30.548 22.293 30.548 22.581 29.718 Z M21.336 28.765 L21.523 28.847 20.442 31.289 20.255 31.206 Z M19.117 30.587 L19.15 30.587 19.615 29.393 19.873 29.393 19.247 30.874 18.987 30.874 18.35 29.393 18.622 29.393 Z M18.012 30.687 C17.976 30.719 17.934 30.749 17.886 30.776 17.838 30.804 17.785 30.828 17.727 30.847 17.67 30.867 17.61 30.882 17.548 30.893 17.486 30.904 17.423 30.91 17.36 30.91 17.242 30.91 17.137 30.891 17.046 30.855 16.955 30.818 16.879 30.766 16.818 30.698 16.757 30.63 16.71 30.548 16.678 30.453 16.647 30.358 16.631 30.252 16.631 30.133 16.631 30.009 16.648 29.898 16.683 29.802 16.718 29.705 16.767 29.624 16.833 29.558 16.898 29.493 16.977 29.443 17.07 29.409 17.162 29.374 17.266 29.357 17.381 29.357 17.464 29.357 17.546 29.368 17.627 29.39 17.708 29.411 17.779 29.452 17.842 29.513 17.904 29.573 17.952 29.656 17.985 29.762 18.019 29.867 18.031 30.004 18.021 30.172 L16.874 30.172 C16.874 30.35 16.922 30.482 17.018 30.57 17.114 30.658 17.242 30.702 17.402 30.702 17.455 30.702 17.508 30.696 17.56 30.683 17.612 30.67 17.662 30.655 17.71 30.637 17.757 30.619 17.799 30.599 17.835 30.578 17.872 30.556 17.9 30.536 17.92 30.518 Z M17.387 29.553 C17.322 29.553 17.26 29.559 17.202 29.573 17.143 29.587 17.092 29.61 17.047 29.643 17.003 29.675 16.966 29.718 16.938 29.77 16.909 29.823 16.891 29.887 16.883 29.965 L17.805 29.965 C17.795 29.834 17.753 29.733 17.678 29.661 17.605 29.589 17.507 29.553 17.387 29.553 Z M15.701 28.8 L16.181 28.8 16.181 30.367 C16.181 30.385 16.182 30.407 16.184 30.434 16.186 30.461 16.188 30.489 16.191 30.518 16.194 30.548 16.198 30.577 16.202 30.606 16.205 30.635 16.209 30.66 16.213 30.682 L16.412 30.682 16.412 30.874 16.018 30.874 15.988 30.646 15.976 30.646 C15.933 30.721 15.868 30.784 15.782 30.834 15.696 30.885 15.597 30.91 15.485 30.91 15.261 30.91 15.097 30.847 14.991 30.722 14.885 30.596 14.833 30.401 14.833 30.136 14.833 30.012 14.85 29.902 14.886 29.806 14.922 29.71 14.972 29.63 15.038 29.566 15.105 29.502 15.184 29.453 15.277 29.419 15.37 29.386 15.474 29.369 15.588 29.369 15.63 29.369 15.667 29.37 15.699 29.372 15.732 29.374 15.762 29.377 15.79 29.381 15.817 29.385 15.843 29.39 15.868 29.397 15.893 29.404 15.92 29.411 15.95 29.419 L15.95 28.998 15.701 28.998 Z M15.523 30.711 C15.643 30.711 15.738 30.68 15.807 30.618 15.877 30.555 15.924 30.462 15.95 30.338 L15.95 29.65 C15.906 29.621 15.857 29.599 15.803 29.585 15.749 29.571 15.677 29.565 15.588 29.565 15.43 29.565 15.306 29.61 15.215 29.702 15.124 29.794 15.078 29.939 15.078 30.136 15.078 30.217 15.086 30.293 15.101 30.363 15.115 30.433 15.14 30.494 15.175 30.545 15.209 30.597 15.255 30.637 15.313 30.667 15.37 30.696 15.44 30.711 15.523 30.711 Z M14.225 28.765 L14.412 28.847 13.33 31.289 13.144 31.206 Z M10.122 28.8 L10.323 28.8 10.323 31.259 10.122 31.259 Z M7.33 30.948 C7.33 31.041 7.313 31.122 7.277 31.193 7.242 31.263 7.193 31.321 7.13 31.366 7.068 31.411 6.995 31.445 6.913 31.468 6.83 31.491 6.74 31.502 6.643 31.502 6.526 31.502 6.425 31.49 6.338 31.467 6.251 31.443 6.176 31.412 6.113 31.375 L6.225 31.165 C6.243 31.18 6.266 31.195 6.295 31.21 6.323 31.225 6.357 31.239 6.394 31.252 6.432 31.265 6.472 31.275 6.514 31.283 6.557 31.291 6.598 31.295 6.64 31.295 6.727 31.295 6.799 31.287 6.858 31.271 6.916 31.255 6.963 31.231 6.998 31.197 7.034 31.163 7.06 31.12 7.075 31.067 7.091 31.013 7.099 30.948 7.099 30.871 L7.099 30.705 7.087 30.705 C7.042 30.77 6.984 30.821 6.913 30.856 6.842 30.892 6.75 30.91 6.637 30.91 6.412 30.91 6.246 30.847 6.141 30.722 6.035 30.596 5.982 30.401 5.982 30.136 5.982 29.883 6.049 29.692 6.184 29.563 6.318 29.434 6.518 29.369 6.782 29.369 6.905 29.369 7.009 29.377 7.095 29.394 7.181 29.411 7.259 29.432 7.33 29.458 Z M6.67 30.711 C6.79 30.711 6.885 30.68 6.954 30.618 7.023 30.555 7.072 30.46 7.099 30.332 L7.099 29.63 C7.012 29.588 6.891 29.567 6.735 29.567 6.577 29.567 6.452 29.614 6.362 29.707 6.271 29.799 6.225 29.942 6.225 30.133 6.225 30.218 6.233 30.296 6.249 30.366 6.265 30.436 6.29 30.497 6.325 30.548 6.359 30.599 6.405 30.639 6.461 30.668 6.517 30.697 6.587 30.711 6.67 30.711 Z M4.169 30.133 C4.169 29.894 4.231 29.705 4.355 29.566 4.48 29.427 4.658 29.357 4.889 29.357 5.013 29.357 5.121 29.377 5.21 29.418 5.3 29.458 5.375 29.513 5.434 29.582 5.493 29.651 5.537 29.733 5.566 29.828 5.595 29.923 5.609 30.025 5.609 30.133 5.609 30.252 5.593 30.359 5.562 30.455 5.53 30.551 5.483 30.632 5.422 30.699 5.361 30.766 5.285 30.818 5.195 30.855 5.106 30.891 5.003 30.91 4.889 30.91 4.766 30.91 4.66 30.889 4.569 30.849 4.478 30.808 4.403 30.754 4.344 30.685 4.285 30.615 4.241 30.533 4.212 30.438 4.183 30.344 4.169 30.242 4.169 30.133 Z M4.415 30.133 C4.415 30.202 4.423 30.272 4.44 30.341 4.457 30.41 4.484 30.472 4.522 30.527 4.559 30.583 4.608 30.627 4.668 30.661 4.728 30.694 4.802 30.711 4.889 30.711 5.047 30.711 5.166 30.662 5.246 30.565 5.326 30.467 5.366 30.323 5.366 30.133 5.366 30.062 5.358 29.993 5.341 29.925 5.324 29.856 5.296 29.795 5.258 29.739 5.219 29.684 5.17 29.639 5.11 29.606 5.049 29.572 4.976 29.555 4.889 29.555 4.731 29.555 4.612 29.604 4.533 29.701 4.454 29.798 4.415 29.942 4.415 30.133 Z M2.575 28.8 L3.067 28.8 3.067 30.376 C3.067 30.497 3.087 30.582 3.127 30.631 3.168 30.681 3.228 30.705 3.307 30.705 3.362 30.705 3.415 30.695 3.465 30.675 3.515 30.656 3.571 30.622 3.633 30.575 L3.739 30.738 C3.708 30.765 3.673 30.79 3.635 30.812 3.598 30.834 3.559 30.852 3.52 30.867 3.481 30.882 3.441 30.893 3.402 30.901 3.362 30.909 3.325 30.913 3.292 30.913 3.219 30.913 3.154 30.903 3.096 30.885 3.039 30.866 2.991 30.835 2.953 30.794 2.914 30.753 2.885 30.698 2.865 30.63 2.845 30.562 2.835 30.477 2.835 30.376 L2.835 28.998 2.575 28.998 Z M0.45 28.8 L0.925 28.8 0.925 29.562 0.939 29.562 C0.991 29.496 1.057 29.446 1.138 29.41 1.219 29.375 1.307 29.357 1.402 29.357 1.836 29.357 2.053 29.608 2.053 30.11 2.053 30.365 1.983 30.559 1.843 30.695 1.703 30.83 1.503 30.898 1.245 30.898 1.122 30.898 1.011 30.886 0.913 30.862 0.814 30.838 0.742 30.811 0.696 30.779 L0.696 28.998 0.45 28.998 Z M1.372 29.555 C1.253 29.555 1.158 29.589 1.085 29.656 1.011 29.723 0.958 29.818 0.925 29.941 L0.925 30.622 C0.97 30.646 1.024 30.665 1.087 30.678 1.151 30.692 1.217 30.699 1.286 30.699 1.365 30.699 1.437 30.688 1.501 30.665 1.565 30.642 1.62 30.607 1.665 30.558 1.711 30.51 1.746 30.448 1.77 30.373 1.795 30.298 1.807 30.209 1.807 30.107 1.807 30.032 1.799 29.961 1.784 29.893 1.768 29.826 1.743 29.767 1.708 29.717 1.674 29.667 1.629 29.627 1.573 29.598 1.518 29.57 1.451 29.555 1.372 29.555 Z" fill="#d7dadc" fill-opacity="1" stroke="none"/>
 <path id="#!/web" d="M9.339 0.948 L9.813 0.948 9.813 1.71 9.828 1.71 C9.879 1.645 9.946 1.594 10.027 1.558 10.108 1.523 10.195 1.505 10.29 1.505 10.725 1.505 10.942 1.756 10.942 2.258 10.942 2.513 10.872 2.708 10.732 2.843 10.592 2.978 10.392 3.046 10.133 3.046 10.011 3.046 9.9 3.034 9.802 3.01 9.703 2.987 9.631 2.959 9.585 2.927 L9.585 1.147 9.339 1.147 Z M10.261 1.704 C10.142 1.704 10.046 1.737 9.973 1.805 9.9 1.872 9.847 1.966 9.813 2.089 L9.813 2.77 C9.859 2.794 9.913 2.813 9.976 2.827 10.039 2.841 10.106 2.847 10.175 2.847 10.254 2.847 10.325 2.836 10.39 2.813 10.454 2.791 10.509 2.755 10.554 2.707 10.599 2.658 10.635 2.597 10.659 2.522 10.684 2.446 10.696 2.358 10.696 2.255 10.696 2.18 10.688 2.109 10.673 2.042 10.657 1.974 10.632 1.915 10.597 1.865 10.562 1.815 10.518 1.775 10.462 1.747 10.407 1.718 10.34 1.704 10.261 1.704 Z M9.123 2.835 C9.087 2.867 9.045 2.897 8.997 2.925 8.949 2.952 8.896 2.976 8.838 2.995 8.781 3.015 8.722 3.031 8.659 3.042 8.597 3.052 8.534 3.058 8.471 3.058 8.353 3.058 8.248 3.039 8.157 3.003 8.066 2.966 7.99 2.914 7.929 2.846 7.868 2.778 7.821 2.696 7.79 2.602 7.758 2.507 7.742 2.4 7.742 2.282 7.742 2.157 7.759 2.046 7.794 1.95 7.829 1.853 7.878 1.772 7.944 1.707 8.009 1.642 8.088 1.592 8.181 1.557 8.274 1.522 8.377 1.505 8.492 1.505 8.575 1.505 8.657 1.516 8.738 1.538 8.819 1.559 8.89 1.601 8.953 1.661 9.015 1.721 9.063 1.804 9.096 1.91 9.13 2.015 9.142 2.152 9.132 2.32 L7.985 2.32 C7.985 2.498 8.033 2.631 8.129 2.718 8.225 2.806 8.353 2.85 8.513 2.85 8.566 2.85 8.619 2.844 8.671 2.831 8.723 2.818 8.773 2.803 8.821 2.785 8.868 2.767 8.91 2.748 8.947 2.726 8.983 2.704 9.011 2.685 9.031 2.667 Z M8.498 1.701 C8.433 1.701 8.371 1.708 8.313 1.722 8.254 1.735 8.203 1.758 8.158 1.791 8.114 1.824 8.078 1.866 8.049 1.918 8.02 1.971 8.002 2.035 7.994 2.113 L8.915 2.113 C8.906 1.982 8.864 1.881 8.79 1.809 8.715 1.737 8.618 1.701 8.498 1.701 Z M6.782 1.867 L7.078 2.69 7.099 2.69 7.31 1.541 7.526 1.541 7.235 3.022 6.972 3.022 6.687 2.205 6.678 2.205 6.382 3.022 6.118 3.022 5.807 1.541 6.035 1.541 6.275 2.696 6.293 2.696 6.581 1.867 Z M5.336 0.913 L5.523 0.995 4.442 3.437 4.255 3.354 Z M2.99 0.948 L3.235 0.948 3.235 1.976 3.185 2.498 3.04 2.498 2.99 1.976 Z M2.939 2.886 C2.939 2.833 2.955 2.791 2.985 2.76 3.016 2.729 3.057 2.714 3.108 2.714 3.162 2.714 3.204 2.729 3.235 2.76 3.267 2.791 3.283 2.833 3.283 2.886 3.283 2.937 3.267 2.979 3.235 3.01 3.204 3.042 3.162 3.058 3.108 3.058 3.057 3.058 3.016 3.042 2.985 3.01 2.955 2.979 2.939 2.937 2.939 2.886 Z M1.458 2.355 L1.028 2.355 0.913 2.85 0.708 2.85 0.824 2.355 0.533 2.355 0.575 2.166 0.868 2.166 0.96 1.778 0.682 1.778 0.723 1.588 1.005 1.588 1.117 1.12 1.322 1.12 1.209 1.588 1.638 1.588 1.751 1.12 1.955 1.12 1.843 1.588 2.13 1.588 2.083 1.778 1.798 1.778 1.707 2.166 1.982 2.166 1.935 2.355 1.662 2.355 1.547 2.85 1.342 2.85 Z M1.073 2.166 L1.502 2.166 1.594 1.778 1.165 1.778 Z" fill="#d7dadc" fill-opacity="1" stroke="none"/>
</svg>
