<?xml version="1.0" encoding="UTF-8"?>
<svg width="1080px" height="1080px" viewBox="0 0 1080 1080" xmlns="http://www.w3.org/2000/svg" xmlns:xlink="http://www.w3.org/1999/xlink" version="1.1">
 <!-- Generated by Pixelmator Pro 2.3 -->
 <path id="Shape" d="M0 1080 L1080 1080 1080 0 0 0 Z" fill="#5a2673" fill-opacity="1" stroke="none"/>
 <path id="ï–" d="M825.635 582.793 C825.635 615.313 822.559 643.877 816.406 668.486 807.031 707.158 791.651 726.494 770.264 726.494 764.697 726.494 752.539 720.195 733.789 707.598 710.937 692.07 667.285 679.18 602.832 668.926 549.511 660.137 502.783 655.742 462.646 655.742 451.807 655.742 446.387 664.678 446.387 682.549 446.387 688.701 448.73 697.417 453.418 708.696 458.105 719.976 460.449 728.838 460.449 735.283 460.449 741.729 464.185 748.906 471.655 756.816 479.126 764.727 482.861 771.025 482.861 775.713 482.861 776.885 482.495 778.643 481.763 780.986 481.03 783.33 480.664 785.088 480.664 786.26 480.664 790.361 484.106 796.221 490.991 803.838 497.876 811.455 501.318 818.047 501.318 823.613 501.318 826.25 500.22 829.619 498.022 833.721 495.825 837.822 494.727 841.045 494.727 843.389 494.727 846.904 496.558 850.933 500.22 855.474 503.882 860.015 505.713 863.164 505.713 864.922 505.713 870.195 498.682 872.832 484.619 872.832 453.564 872.832 431.738 863.75 419.141 845.586 411.523 834.453 404.053 811.162 396.729 775.713 383.252 709.502 359.961 676.396 326.855 676.396 325.391 676.396 323.486 676.616 321.143 677.056 318.799 677.495 317.041 677.715 315.869 677.715 278.369 677.715 259.619 643.438 259.619 574.883 259.619 535.625 278.808 507.354 317.188 490.068 337.109 482.744 366.846 471.172 406.396 455.352 447.998 437.773 493.554 410.82 543.066 374.492 589.649 340.801 622.314 311.943 641.064 287.92 648.975 247.49 664.941 227.275 688.965 227.275 717.676 227.275 745.361 258.916 772.021 322.197 790.186 364.971 803.809 409.941 812.891 457.109 821.387 499.59 825.635 541.484 825.635 582.793 Z M285.107 672.881 C253.467 670.83 231.055 666.729 217.871 660.576 197.07 650.322 186.67 631.719 186.67 604.766 186.67 578.105 195.166 558.33 212.158 545.439 212.744 544.854 232.373 534.453 271.045 514.238 256.982 529.766 249.951 553.496 249.951 585.43 249.951 624.102 261.67 653.252 285.107 672.881 Z M713.574 553.35 C713.574 522.295 708.301 493.145 697.754 465.898 685.742 435.43 669.483 414.043 648.975 401.738 660.4 506.036 677.685 584.258 700.83 636.406 709.326 610.625 713.574 582.94 713.574 553.35 Z M713.135 681.23 C687.06 641.972 666.406 592.315 651.172 532.256 637.109 476.884 630.078 423.418 630.078 371.855 L636.23 321.758 C616.308 347.246 589.209 371.123 554.932 393.389 524.17 411.846 493.262 430.449 462.207 449.199 425.879 471.758 407.715 497.978 407.715 527.861 407.715 553.936 412.402 576.494 421.777 595.537 433.496 618.975 450.781 632.598 473.633 636.406 475.391 636.699 491.65 637.432 522.412 638.604 595.069 641.533 658.642 655.742 713.135 681.23 Z M252.148 654.424 C240.723 622.49 235.01 597.442 235.01 579.277 235.01 566.68 236.621 555.986 239.844 547.197 L230.176 549.834 C226.367 563.311 224.463 577.666 224.463 592.9 224.463 605.498 229.59 626.006 239.844 654.424 Z M227.979 651.787 C217.432 626.592 212.158 608.574 212.158 597.734 212.158 586.894 213.33 573.418 215.674 557.305 L203.369 565.654 C201.318 577.373 200.293 588.359 200.293 598.613 200.293 612.09 206.006 628.496 217.432 647.832 Z" fill="#d7dadc" fill-opacity="1" stroke="none"/>
 <path id="{" d="M66 337.4 C66 328.8 64.55 321.35 61.65 315.05 58.75 308.75 55.15 303.5 50.85 299.3 46.55 295.1 41.95 292 37.05 290 32.15 288 27.8 287 24 287 L24 266 C27.8 266 32.15 265.15 37.05 263.45 41.95 261.75 46.55 258.95 50.85 255.05 55.15 251.15 58.75 246.1 61.65 239.9 64.55 233.7 66 226 66 216.8 L66 186.2 C66 179 67.15 172.4 69.45 166.4 71.75 160.4 74.95 155.2 79.05 150.8 83.15 146.4 88.05 142.95 93.75 140.45 99.45 137.95 105.7 136.7 112.5 136.7 L156 136.7 156 157.7 123 157.7 C110.4 157.7 101.65 160.7 96.75 166.7 91.85 172.7 89.4 181.6 89.4 193.4 L89.4 222.5 C89.4 230.7 87.9 238 84.9 244.4 81.9 250.8 78.3 256.15 74.1 260.45 69.9 264.75 65.6 268.15 61.2 270.65 56.8 273.15 53.2 274.6 50.4 275 L50.4 276.8 C53 277.2 56.5 278.75 60.9 281.45 65.3 284.15 69.6 287.85 73.8 292.55 78 297.25 81.65 302.8 84.75 309.2 87.85 315.6 89.4 322.7 89.4 330.5 L89.4 359.3 C89.4 371.5 92 380.5 97.2 386.3 102.4 392.1 111.1 395 123.3 395 L156 395 156 416 112.5 416 C98.5 416 87.25 411.85 78.75 403.55 70.25 395.25 66 383 66 366.8 Z" fill="#d7dadc" fill-opacity="1" stroke="none"/>
 <path id="}" d="M1014 906.8 C1014 923 1009.75 935.25 1001.25 943.55 992.75 951.85 981.5 956 967.5 956 L924 956 924 935 956.7 935 C968.9 935 977.6 932.1 982.8 926.3 988 920.5 990.6 911.5 990.6 899.3 L990.6 870.5 C990.6 862.7 992.1 855.6 995.1 849.2 998.1 842.8 1001.7 837.25 1005.9 832.55 1010.1 827.85 1014.4 824.15 1018.8 821.45 1023.2 818.75 1026.8 817.2 1029.6 816.8 L1029.6 815 C1026.8 814.6 1023.2 813.15 1018.8 810.65 1014.4 808.15 1010.1 804.75 1005.9 800.45 1001.7 796.15 998.1 790.8 995.1 784.4 992.1 778 990.6 770.7 990.6 762.5 L990.6 733.4 C990.6 721.6 988.15 712.7 983.25 706.7 978.35 700.7 969.6 697.7 957 697.7 L924 697.7 924 676.7 967.5 676.7 C974.3 676.7 980.55 677.95 986.25 680.45 991.95 682.95 996.85 686.4 1000.95 690.8 1005.05 695.2 1008.25 700.4 1010.55 706.4 1012.85 712.4 1014 719 1014 726.2 L1014 756.8 C1014 766 1015.45 773.7 1018.35 779.9 1021.25 786.1 1024.85 791.15 1029.15 795.05 1033.45 798.95 1038.05 801.75 1042.95 803.45 1047.85 805.15 1052.2 806 1056 806 L1056 827 C1052.2 827 1047.85 828 1042.95 830 1038.05 832 1033.45 835.1 1029.15 839.3 1024.85 843.5 1021.25 848.75 1018.35 855.05 1015.45 861.35 1014 868.8 1014 877.4 Z" fill="#d7dadc" fill-opacity="1" stroke="none"/>
 <path id="blog-|-/dev/web" d="M855.2 972 L871.2 972 871.2 997.7 871.7 997.7 C873.433 995.5 875.667 993.8 878.4 992.6 881.133 991.4 884.1 990.8 887.3 990.8 901.967 990.8 909.3 999.267 909.3 1016.2 909.3 1024.8 906.933 1031.383 902.2 1035.95 897.467 1040.517 890.733 1042.8 882 1042.8 877.867 1042.8 874.133 1042.4 870.8 1041.6 867.467 1040.8 865.033 1039.867 863.5 1038.8 L863.5 978.7 855.2 978.7 Z M886.3 997.5 C882.3 997.5 879.067 998.633 876.6 1000.9 874.133 1003.167 872.333 1006.367 871.2 1010.5 L871.2 1033.5 C872.733 1034.3 874.567 1034.933 876.7 1035.4 878.833 1035.867 881.067 1036.1 883.4 1036.1 886.067 1036.1 888.483 1035.717 890.65 1034.95 892.817 1034.183 894.667 1032.983 896.2 1031.35 897.733 1029.717 898.917 1027.633 899.75 1025.1 900.583 1022.567 901 1019.567 901 1016.1 901 1013.567 900.733 1011.167 900.2 1008.9 899.667 1006.633 898.817 1004.65 897.65 1002.95 896.483 1001.25 894.967 999.917 893.1 998.95 891.233 997.983 888.967 997.5 886.3 997.5 Z M847.9 1035.7 C846.7 1036.767 845.283 1037.767 843.65 1038.7 842.017 1039.633 840.233 1040.433 838.3 1041.1 836.367 1041.767 834.35 1042.283 832.25 1042.65 830.15 1043.017 828.033 1043.2 825.9 1043.2 821.9 1043.2 818.367 1042.583 815.3 1041.35 812.233 1040.117 809.667 1038.35 807.6 1036.05 805.533 1033.75 803.967 1031 802.9 1027.8 801.833 1024.6 801.3 1021 801.3 1017 801.3 1012.8 801.883 1009.067 803.05 1005.8 804.217 1002.533 805.9 999.8 808.1 997.6 810.3 995.4 812.967 993.717 816.1 992.55 819.233 991.383 822.733 990.8 826.6 990.8 829.4 990.8 832.167 991.167 834.9 991.9 837.633 992.633 840.05 994.017 842.15 996.05 844.25 998.083 845.867 1000.883 847 1004.45 848.133 1008.017 848.533 1012.633 848.2 1018.3 L809.5 1018.3 C809.5 1024.3 811.117 1028.783 814.35 1031.75 817.583 1034.717 821.9 1036.2 827.3 1036.2 829.1 1036.2 830.883 1035.983 832.65 1035.55 834.417 1035.117 836.1 1034.6 837.7 1034 839.3 1033.4 840.717 1032.733 841.95 1032 843.183 1031.267 844.133 1030.6 844.8 1030 Z M826.8 997.4 C824.6 997.4 822.517 997.633 820.55 998.1 818.583 998.567 816.85 999.35 815.35 1000.45 813.85 1001.55 812.617 1002.983 811.65 1004.75 810.683 1006.517 810.067 1008.7 809.8 1011.3 L840.9 1011.3 C840.567 1006.9 839.15 1003.483 836.65 1001.05 834.15 998.617 830.867 997.4 826.8 997.4 Z M768.9 1003 L778.9 1030.8 779.6 1030.8 786.7 992 794 992 784.2 1042 775.3 1042 765.7 1014.4 765.4 1014.4 755.4 1042 746.5 1042 736 992 743.7 992 751.8 1031 752.4 1031 762.1 1003 Z M720.1 970.8 L726.4 973.6 689.9 1056 683.6 1053.2 Z M645.2 1032.3 L646.3 1032.3 662 992 670.7 992 649.6 1042 640.8 1042 619.3 992 628.5 992 Z M607.9 1035.7 C606.7 1036.767 605.283 1037.767 603.65 1038.7 602.017 1039.633 600.233 1040.433 598.3 1041.1 596.367 1041.767 594.35 1042.283 592.25 1042.65 590.15 1043.017 588.033 1043.2 585.9 1043.2 581.9 1043.2 578.367 1042.583 575.3 1041.35 572.233 1040.117 569.667 1038.35 567.6 1036.05 565.533 1033.75 563.967 1031 562.9 1027.8 561.833 1024.6 561.3 1021 561.3 1017 561.3 1012.8 561.883 1009.067 563.05 1005.8 564.217 1002.533 565.9 999.8 568.1 997.6 570.3 995.4 572.967 993.717 576.1 992.55 579.233 991.383 582.733 990.8 586.6 990.8 589.4 990.8 592.167 991.167 594.9 991.9 597.633 992.633 600.05 994.017 602.15 996.05 604.25 998.083 605.867 1000.883 607 1004.45 608.133 1008.017 608.533 1012.633 608.2 1018.3 L569.5 1018.3 C569.5 1024.3 571.117 1028.783 574.35 1031.75 577.583 1034.717 581.9 1036.2 587.3 1036.2 589.1 1036.2 590.883 1035.983 592.65 1035.55 594.417 1035.117 596.1 1034.6 597.7 1034 599.3 1033.4 600.717 1032.733 601.95 1032 603.183 1031.267 604.133 1030.6 604.8 1030 Z M586.8 997.4 C584.6 997.4 582.517 997.633 580.55 998.1 578.583 998.567 576.85 999.35 575.35 1000.45 573.85 1001.55 572.617 1002.983 571.65 1004.75 570.683 1006.517 570.067 1008.7 569.8 1011.3 L600.9 1011.3 C600.567 1006.9 599.15 1003.483 596.65 1001.05 594.15 998.617 590.867 997.4 586.8 997.4 Z M529.9 972 L546.1 972 546.1 1024.9 C546.1 1025.5 546.133 1026.25 546.2 1027.15 546.267 1028.05 546.35 1029 546.45 1030 546.55 1031 546.667 1031.983 546.8 1032.95 546.933 1033.917 547.067 1034.767 547.2 1035.5 L553.9 1035.5 553.9 1042 540.6 1042 539.6 1034.3 539.2 1034.3 C537.733 1036.833 535.55 1038.95 532.65 1040.65 529.75 1042.35 526.4 1043.2 522.6 1043.2 515.067 1043.2 509.517 1041.083 505.95 1036.85 502.383 1032.617 500.6 1026.033 500.6 1017.1 500.6 1012.9 501.2 1009.183 502.4 1005.95 503.6 1002.717 505.317 1000.017 507.55 997.85 509.783 995.683 512.467 994.033 515.6 992.9 518.733 991.767 522.233 991.2 526.1 991.2 527.5 991.2 528.75 991.233 529.85 991.3 530.95 991.367 531.967 991.467 532.9 991.6 533.833 991.733 534.717 991.917 535.55 992.15 536.383 992.383 537.3 992.633 538.3 992.9 L538.3 978.7 529.9 978.7 Z M523.9 1036.5 C527.967 1036.5 531.167 1035.45 533.5 1033.35 535.833 1031.25 537.433 1028.1 538.3 1023.9 L538.3 1000.7 C536.833 999.7 535.183 998.967 533.35 998.5 531.517 998.033 529.1 997.8 526.1 997.8 520.767 997.8 516.567 999.35 513.5 1002.45 510.433 1005.55 508.9 1010.433 508.9 1017.1 508.9 1019.833 509.15 1022.383 509.65 1024.75 510.15 1027.117 510.983 1029.167 512.15 1030.9 513.317 1032.633 514.867 1034 516.8 1035 518.733 1036 521.1 1036.5 523.9 1036.5 Z M480.1 970.8 L486.4 973.6 449.9 1056 443.6 1053.2 Z M341.6 972 L348.4 972 348.4 1055 341.6 1055 Z M247.4 1044.5 C247.4 1047.633 246.8 1050.383 245.6 1052.75 244.4 1055.117 242.75 1057.067 240.65 1058.6 238.55 1060.133 236.1 1061.283 233.3 1062.05 230.5 1062.817 227.467 1063.2 224.2 1063.2 220.267 1063.2 216.833 1062.8 213.9 1062 210.967 1061.2 208.433 1060.167 206.3 1058.9 L210.1 1051.8 C210.7 1052.333 211.483 1052.85 212.45 1053.35 213.417 1053.85 214.533 1054.317 215.8 1054.75 217.067 1055.183 218.417 1055.533 219.85 1055.8 221.283 1056.067 222.7 1056.2 224.1 1056.2 227.033 1056.2 229.483 1055.933 231.45 1055.4 233.417 1054.867 235 1054.033 236.2 1052.9 237.4 1051.767 238.267 1050.3 238.8 1048.5 239.333 1046.7 239.6 1044.5 239.6 1041.9 L239.6 1036.3 239.2 1036.3 C237.667 1038.5 235.7 1040.2 233.3 1041.4 230.9 1042.6 227.8 1043.2 224 1043.2 216.4 1043.2 210.817 1041.083 207.25 1036.85 203.683 1032.617 201.9 1026.033 201.9 1017.1 201.9 1008.567 204.167 1002.117 208.7 997.75 213.233 993.383 219.967 991.2 228.9 991.2 233.033 991.2 236.55 991.483 239.45 992.05 242.35 992.617 245 993.333 247.4 994.2 Z M225.1 1036.5 C229.167 1036.5 232.367 1035.45 234.7 1033.35 237.033 1031.25 238.667 1028.033 239.6 1023.7 L239.6 1000 C236.667 998.6 232.567 997.9 227.3 997.9 221.967 997.9 217.767 999.467 214.7 1002.6 211.633 1005.733 210.1 1010.533 210.1 1017 210.1 1019.867 210.367 1022.483 210.9 1024.85 211.433 1027.217 212.283 1029.267 213.45 1031 214.617 1032.733 216.15 1034.083 218.05 1035.05 219.95 1036.017 222.3 1036.5 225.1 1036.5 Z M140.7 1017 C140.7 1008.933 142.8 1002.55 147 997.85 151.2 993.15 157.2 990.8 165 990.8 169.2 990.8 172.817 991.483 175.85 992.85 178.883 994.217 181.4 996.067 183.4 998.4 185.4 1000.733 186.883 1003.5 187.85 1006.7 188.817 1009.9 189.3 1013.333 189.3 1017 189.3 1021 188.767 1024.617 187.7 1027.85 186.633 1031.083 185.067 1033.833 183 1036.1 180.933 1038.367 178.383 1040.117 175.35 1041.35 172.317 1042.583 168.867 1043.2 165 1043.2 160.867 1043.2 157.267 1042.517 154.2 1041.15 151.133 1039.783 148.6 1037.933 146.6 1035.6 144.6 1033.267 143.117 1030.5 142.15 1027.3 141.183 1024.1 140.7 1020.667 140.7 1017 Z M149 1017 C149 1019.333 149.283 1021.667 149.85 1024 150.417 1026.333 151.333 1028.433 152.6 1030.3 153.867 1032.167 155.517 1033.667 157.55 1034.8 159.583 1035.933 162.067 1036.5 165 1036.5 170.333 1036.5 174.35 1034.85 177.05 1031.55 179.75 1028.25 181.1 1023.4 181.1 1017 181.1 1014.6 180.817 1012.25 180.25 1009.95 179.683 1007.65 178.75 1005.567 177.45 1003.7 176.15 1001.833 174.483 1000.333 172.45 999.2 170.417 998.067 167.933 997.5 165 997.5 159.667 997.5 155.667 999.133 153 1002.4 150.333 1005.667 149 1010.533 149 1017 Z M86.9 972 L103.5 972 103.5 1025.2 C103.5 1029.267 104.183 1032.133 105.55 1033.8 106.917 1035.467 108.933 1036.3 111.6 1036.3 113.467 1036.3 115.25 1035.967 116.95 1035.3 118.65 1034.633 120.533 1033.5 122.6 1031.9 L126.2 1037.4 C125.133 1038.333 123.967 1039.167 122.7 1039.9 121.433 1040.633 120.133 1041.25 118.8 1041.75 117.467 1042.25 116.133 1042.633 114.8 1042.9 113.467 1043.167 112.233 1043.3 111.1 1043.3 108.633 1043.3 106.433 1042.983 104.5 1042.35 102.567 1041.717 100.95 1040.7 99.65 1039.3 98.35 1037.9 97.367 1036.05 96.7 1033.75 96.033 1031.45 95.7 1028.6 95.7 1025.2 L95.7 978.7 86.9 978.7 Z M15.2 972 L31.2 972 31.2 997.7 31.7 997.7 C33.433 995.5 35.667 993.8 38.4 992.6 41.133 991.4 44.1 990.8 47.3 990.8 61.967 990.8 69.3 999.267 69.3 1016.2 69.3 1024.8 66.933 1031.383 62.2 1035.95 57.467 1040.517 50.733 1042.8 42 1042.8 37.867 1042.8 34.133 1042.4 30.8 1041.6 27.467 1040.8 25.033 1039.867 23.5 1038.8 L23.5 978.7 15.2 978.7 Z M46.3 997.5 C42.3 997.5 39.067 998.633 36.6 1000.9 34.133 1003.167 32.333 1006.367 31.2 1010.5 L31.2 1033.5 C32.733 1034.3 34.567 1034.933 36.7 1035.4 38.833 1035.867 41.067 1036.1 43.4 1036.1 46.067 1036.1 48.483 1035.717 50.65 1034.95 52.817 1034.183 54.667 1032.983 56.2 1031.35 57.733 1029.717 58.917 1027.633 59.75 1025.1 60.583 1022.567 61 1019.567 61 1016.1 61 1013.567 60.733 1011.167 60.2 1008.9 59.667 1006.633 58.817 1004.65 57.65 1002.95 56.483 1001.25 54.967 999.917 53.1 998.95 51.233 997.983 48.967 997.5 46.3 997.5 Z" fill="#d7dadc" fill-opacity="1" stroke="none"/>
 <path id="#!/web" d="M315.2 32 L331.2 32 331.2 57.7 331.7 57.7 C333.433 55.5 335.667 53.8 338.4 52.6 341.133 51.4 344.1 50.8 347.3 50.8 361.967 50.8 369.3 59.267 369.3 76.2 369.3 84.8 366.933 91.383 362.2 95.95 357.467 100.517 350.733 102.8 342 102.8 337.867 102.8 334.133 102.4 330.8 101.6 327.467 100.8 325.033 99.867 323.5 98.8 L323.5 38.7 315.2 38.7 Z M346.3 57.5 C342.3 57.5 339.067 58.633 336.6 60.9 334.133 63.167 332.333 66.367 331.2 70.5 L331.2 93.5 C332.733 94.3 334.567 94.933 336.7 95.4 338.833 95.867 341.067 96.1 343.4 96.1 346.067 96.1 348.483 95.717 350.65 94.95 352.817 94.183 354.667 92.983 356.2 91.35 357.733 89.717 358.917 87.633 359.75 85.1 360.583 82.567 361 79.567 361 76.1 361 73.567 360.733 71.167 360.2 68.9 359.667 66.633 358.817 64.65 357.65 62.95 356.483 61.25 354.967 59.917 353.1 58.95 351.233 57.983 348.967 57.5 346.3 57.5 Z M307.9 95.7 C306.7 96.767 305.283 97.767 303.65 98.7 302.017 99.633 300.233 100.433 298.3 101.1 296.367 101.767 294.35 102.283 292.25 102.65 290.15 103.017 288.033 103.2 285.9 103.2 281.9 103.2 278.367 102.583 275.3 101.35 272.233 100.117 269.667 98.35 267.6 96.05 265.533 93.75 263.967 91 262.9 87.8 261.833 84.6 261.3 81 261.3 77 261.3 72.8 261.883 69.067 263.05 65.8 264.217 62.533 265.9 59.8 268.1 57.6 270.3 55.4 272.967 53.717 276.1 52.55 279.233 51.383 282.733 50.8 286.6 50.8 289.4 50.8 292.167 51.167 294.9 51.9 297.633 52.633 300.05 54.017 302.15 56.05 304.25 58.083 305.867 60.883 307 64.45 308.133 68.017 308.533 72.633 308.2 78.3 L269.5 78.3 C269.5 84.3 271.117 88.783 274.35 91.75 277.583 94.717 281.9 96.2 287.3 96.2 289.1 96.2 290.883 95.983 292.65 95.55 294.417 95.117 296.1 94.6 297.7 94 299.3 93.4 300.717 92.733 301.95 92 303.183 91.267 304.133 90.6 304.8 90 Z M286.8 57.4 C284.6 57.4 282.517 57.633 280.55 58.1 278.583 58.567 276.85 59.35 275.35 60.45 273.85 61.55 272.617 62.983 271.65 64.75 270.683 66.517 270.067 68.7 269.8 71.3 L300.9 71.3 C300.567 66.9 299.15 63.483 296.65 61.05 294.15 58.617 290.867 57.4 286.8 57.4 Z M228.9 63 L238.9 90.8 239.6 90.8 246.7 52 254 52 244.2 102 235.3 102 225.7 74.4 225.4 74.4 215.4 102 206.5 102 196 52 203.7 52 211.8 91 212.4 91 222.1 63 Z M180.1 30.8 L186.4 33.6 149.9 116 143.6 113.2 Z M100.9 32 L109.2 32 109.2 66.7 107.5 84.3 102.6 84.3 100.9 66.7 Z M99.2 97.4 C99.2 95.6 99.717 94.183 100.75 93.15 101.783 92.117 103.167 91.6 104.9 91.6 106.7 91.6 108.133 92.117 109.2 93.15 110.267 94.183 110.8 95.6 110.8 97.4 110.8 99.133 110.267 100.533 109.2 101.6 108.133 102.667 106.7 103.2 104.9 103.2 103.167 103.2 101.783 102.667 100.75 101.6 99.717 100.533 99.2 99.133 99.2 97.4 Z M49.2 79.5 L34.7 79.5 30.8 96.2 23.9 96.2 27.8 79.5 18 79.5 19.4 73.1 29.3 73.1 32.4 60 23 60 24.4 53.6 33.9 53.6 37.7 37.8 44.6 37.8 40.8 53.6 55.3 53.6 59.1 37.8 66 37.8 62.2 53.6 71.9 53.6 70.3 60 60.7 60 57.6 73.1 66.9 73.1 65.3 79.5 56.1 79.5 52.2 96.2 45.3 96.2 Z M36.2 73.1 L50.7 73.1 53.8 60 39.3 60 Z" fill="#d7dadc" fill-opacity="1" stroke="none"/>
</svg>
