<?xml version="1.0" encoding="UTF-8"?>
<!-- Generated by Pixelmator Pro 3.6.18 -->
<svg width="1120" height="1120" viewBox="0 0 1120 1120" xmlns="http://www.w3.org/2000/svg">
    <path id="Rectangle" fill="none" stroke="#000000" stroke-width="20" stroke-linecap="round" stroke-linejoin="round" d="M 10 1110 L 1110 1110 L 1110 10 L 10 10 Z"/>
    <path id="path1" fill="#d7dadc" fill-rule="evenodd" stroke="none" d="M 845.634766 602.792969 C 845.634766 635.312622 842.558655 663.876831 836.40625 688.486328 C 827.031189 727.158386 811.650513 746.494141 790.263672 746.494141 C 784.697266 746.494141 772.539185 740.195374 753.789063 727.597656 C 730.937378 712.07019 687.285461 699.179749 622.832031 688.925781 C 569.511475 680.136719 522.783447 675.742188 482.646484 675.742188 C 471.80658 675.742188 466.386719 684.677612 466.386719 702.548828 C 466.386719 708.701172 468.730438 717.416931 473.417969 728.696289 C 478.105499 739.975647 480.449219 748.837891 480.449219 755.283203 C 480.449219 761.728516 484.18454 768.90625 491.655273 776.816406 C 499.126007 784.726563 502.861328 791.025391 502.861328 795.712891 C 502.861328 796.884766 502.495117 798.642578 501.762695 800.986328 C 501.030273 803.330078 500.664063 805.087891 500.664063 806.259766 C 500.664063 810.361328 504.106415 816.220703 510.991211 823.837891 C 517.875977 831.455078 521.318359 838.046875 521.318359 843.613281 C 521.318359 846.25 520.219727 849.619141 518.022461 853.720703 C 515.825195 857.822266 514.726563 861.044922 514.726563 863.388672 C 514.726563 866.904297 516.557617 870.932617 520.219727 875.473633 C 523.881836 880.014648 525.712891 883.164063 525.712891 884.921875 C 525.712891 890.195313 518.681702 892.832031 504.619141 892.832031 C 473.564301 892.832031 451.738342 883.750122 439.140625 865.585938 C 431.523407 854.453064 424.052765 831.162292 416.728516 795.712891 C 403.251892 729.501587 379.96109 696.396484 346.855469 696.396484 C 345.390625 696.396484 343.486328 696.616211 341.142578 697.055664 C 338.798828 697.495117 337.041016 697.714844 335.869141 697.714844 C 298.368958 697.714844 279.619141 663.437866 279.619141 594.882813 C 279.619141 555.624817 298.808411 527.353577 337.1875 510.068359 C 357.109467 502.74408 386.84552 491.171936 426.396484 475.351563 C 467.99826 457.773376 513.554443 430.820496 563.066406 394.492188 C 609.648682 360.800598 642.314331 331.943481 661.064453 307.919922 C 668.97467 267.490051 684.941284 247.275391 708.964844 247.275391 C 737.675903 247.275391 765.361206 278.91571 792.021484 342.197266 C 810.185608 384.970947 823.808533 429.941162 832.890625 477.109375 C 841.38678 519.590027 845.634766 561.484192 845.634766 602.792969 Z M 305.107422 692.880859 C 273.466644 690.830078 251.054749 686.728516 237.871094 680.576172 C 217.070206 670.322205 206.669922 651.718872 206.669922 624.765625 C 206.669922 598.105347 215.165924 578.330139 232.158203 565.439453 C 232.744141 564.853516 252.372849 554.453247 291.044922 534.238281 C 276.982361 549.765686 269.951172 573.495911 269.951172 605.429688 C 269.951172 644.101746 281.6698 673.251831 305.107422 692.880859 Z M 733.574219 573.349609 C 733.574219 542.294739 728.300842 513.144653 717.753906 485.898438 C 705.742126 455.429565 689.482544 434.04303 668.974609 421.738281 C 680.400452 526.035706 697.685425 604.257568 720.830078 656.40625 C 729.326233 630.624878 733.574219 602.939575 733.574219 573.349609 Z M 733.134766 701.230469 C 707.060425 661.972473 686.406311 612.314758 671.171875 552.255859 C 657.109314 496.88446 650.078125 443.418213 650.078125 391.855469 L 656.230469 341.757813 C 636.308472 367.246216 609.209167 391.122925 574.931641 413.388672 C 544.169739 431.845825 513.261841 450.449097 482.207031 469.199219 C 445.878723 491.757935 427.714844 517.978394 427.714844 547.861328 C 427.714844 573.935669 432.402283 596.494019 441.777344 615.537109 C 453.496155 638.974731 470.781128 652.597656 493.632813 656.40625 C 495.390625 656.699219 511.650238 657.431641 542.412109 658.603516 C 615.068726 661.533203 678.642334 675.742065 733.134766 701.230469 Z M 272.148438 674.423828 C 260.722595 642.490112 255.009766 617.441528 255.009766 599.277344 C 255.009766 586.679626 256.621094 575.986389 259.84375 567.197266 L 250.175781 569.833984 C 246.367172 583.310608 244.462891 597.665955 244.462891 612.900391 C 244.462891 625.498108 249.589798 646.005737 259.84375 674.423828 Z M 247.978516 671.787109 C 237.431595 646.591675 232.158203 628.57428 232.158203 617.734375 C 232.158203 606.89447 233.330063 593.418091 235.673828 577.304688 L 223.369141 585.654297 C 221.318344 597.373108 220.292969 608.359314 220.292969 618.613281 C 220.292969 632.089905 226.005798 648.495972 237.431641 667.832031 Z"/>
    <path id="path2" fill="#d7dadc" fill-rule="evenodd" stroke="none" d="M 86 357.400024 C 86 348.799927 84.550018 341.350037 81.650002 335.049988 C 78.749985 328.749939 75.150024 323.5 70.849998 319.299988 C 66.54998 315.099976 61.950024 312 57.049999 310 C 52.149975 308 47.800018 307 44 307 L 44 286 C 47.800018 286 52.149975 285.150024 57.049999 283.450012 C 61.950024 281.75 66.54998 278.950012 70.849998 275.049988 C 75.150024 271.149963 78.749985 266.100037 81.650002 259.900024 C 84.550018 253.699951 86 246.000061 86 236.799988 L 86 206.200012 C 86 198.999939 87.149986 192.400024 89.449997 186.400024 C 91.750015 180.399963 94.949982 175.200012 99.050003 170.799988 C 103.150017 166.399963 108.049973 162.950012 113.75 160.450012 C 119.450027 157.950012 125.699966 156.700012 132.5 156.700012 L 176 156.700012 L 176 177.700012 L 143 177.700012 C 130.399933 177.700012 121.650024 180.699951 116.75 186.700012 C 111.849976 192.700012 109.400002 201.599915 109.400002 213.400024 L 109.400002 242.5 C 109.400002 250.700012 107.900017 257.999939 104.900002 264.400024 C 101.899986 270.800049 98.300018 276.149963 94.099998 280.450012 C 89.899979 284.75 85.600021 288.149963 81.199997 290.650024 C 76.799973 293.150024 73.200012 294.599976 70.400002 295 L 70.400002 296.799988 C 73.000015 297.200012 76.499977 298.75 80.900002 301.450012 C 85.300018 304.150024 89.599976 307.849976 93.800003 312.549988 C 98.000023 317.25 101.649986 322.799988 104.75 329.200012 C 107.850014 335.600037 109.400002 342.699951 109.400002 350.5 L 109.400002 379.299988 C 109.400002 391.500061 111.999977 400.5 117.199997 406.299988 C 122.400024 412.100037 131.099945 415 143.300003 415 L 176 415 L 176 436 L 132.5 436 C 118.499931 436 107.250046 431.850037 98.75 423.549988 C 90.249954 415.249939 86 403.000061 86 386.799988 Z"/>
    <path id="path3" fill="#d7dadc" fill-rule="evenodd" stroke="none" d="M 1034 926.799988 C 1034 943.000061 1029.75 955.249939 1021.25 963.549988 C 1012.749939 971.850037 1001.500061 976 987.5 976 L 944 976 L 944 955 L 976.700012 955 C 988.900085 955 997.599976 952.100037 1002.799988 946.299988 C 1008 940.5 1010.599976 931.500061 1010.599976 919.299988 L 1010.599976 890.5 C 1010.599976 882.699951 1012.099976 875.600037 1015.099976 869.200012 C 1018.100037 862.799988 1021.699951 857.25 1025.900024 852.549988 C 1030.100098 847.849976 1034.399902 844.150024 1038.800049 841.450012 C 1043.199951 838.75 1046.799927 837.200012 1049.599976 836.799988 L 1049.599976 835 C 1046.799927 834.599976 1043.199951 833.150024 1038.800049 830.650024 C 1034.399902 828.150024 1030.100098 824.75 1025.900024 820.450012 C 1021.699951 816.149963 1018.100037 810.800049 1015.099976 804.400024 C 1012.099976 798 1010.599976 790.700073 1010.599976 782.5 L 1010.599976 753.400024 C 1010.599976 741.599976 1008.150024 732.700073 1003.25 726.700012 C 998.349976 720.699951 989.600037 717.700012 977 717.700012 L 944 717.700012 L 944 696.700012 L 987.5 696.700012 C 994.300049 696.700012 1000.549988 697.949951 1006.25 700.450012 C 1011.950012 702.950012 1016.849976 706.399963 1020.950012 710.799988 C 1025.050049 715.200012 1028.25 720.399963 1030.550049 726.400024 C 1032.850098 732.400024 1034 739 1034 746.200012 L 1034 776.799988 C 1034 786.000061 1035.449951 793.699951 1038.349976 799.900024 C 1041.25 806.100037 1044.849976 811.150024 1049.150024 815.049988 C 1053.450073 818.950012 1058.049927 821.75 1062.949951 823.450012 C 1067.849976 825.150024 1072.199951 826 1076 826 L 1076 847 C 1072.199951 847 1067.849976 848 1062.949951 850 C 1058.049927 852 1053.450073 855.099976 1049.150024 859.299988 C 1044.849976 863.5 1041.25 868.75 1038.349976 875.049988 C 1035.449951 881.350037 1034 888.799927 1034 897.400024 Z"/>
    <path id="blog--devweb" fill="#d7dadc" fill-rule="evenodd" stroke="none" d="M 875.200012 992 L 891.200012 992 L 891.200012 1017.700012 L 891.700012 1017.700012 C 893.43335 1015.5 895.666626 1013.799988 898.400024 1012.599976 C 901.133362 1011.400024 904.099976 1010.799988 907.299988 1010.799988 C 921.966736 1010.799988 929.299988 1019.266602 929.299988 1036.199951 C 929.299988 1044.800049 926.93335 1051.383301 922.200012 1055.949951 C 917.466614 1060.516724 910.733398 1062.800049 902 1062.800049 C 897.866638 1062.800049 894.133362 1062.400024 890.799988 1061.599976 C 887.466675 1060.800049 885.033325 1059.866699 883.5 1058.800049 L 883.5 998.700012 L 875.200012 998.700012 Z M 906.299988 1017.5 C 902.299988 1017.5 899.06665 1018.633301 896.599976 1020.900024 C 894.133301 1023.166687 892.333313 1026.366699 891.200012 1030.5 L 891.200012 1053.5 C 892.733337 1054.300049 894.56665 1054.93335 896.700012 1055.400024 C 898.833374 1055.866699 901.06665 1056.099976 903.400024 1056.099976 C 906.06665 1056.099976 908.483337 1055.716675 910.650024 1054.949951 C 912.81665 1054.18335 914.666687 1052.983398 916.200012 1051.349976 C 917.733337 1049.716675 918.916687 1047.633301 919.75 1045.099976 C 920.583313 1042.56665 921 1039.56665 921 1036.099976 C 921 1033.56665 920.733337 1031.166626 920.200012 1028.900024 C 919.666687 1026.633301 918.81665 1024.650024 917.650024 1022.950012 C 916.483337 1021.25 914.966675 1019.916687 913.099976 1018.950012 C 911.233337 1017.983337 908.966675 1017.5 906.299988 1017.5 Z M 867.900024 1055.699951 C 866.700012 1056.766724 865.283325 1057.766602 863.650024 1058.699951 C 862.016663 1059.633301 860.233337 1060.43335 858.299988 1061.099976 C 856.366638 1061.766724 854.350037 1062.283325 852.25 1062.650024 C 850.149963 1063.016724 848.033325 1063.199951 845.900024 1063.199951 C 841.899963 1063.199951 838.366699 1062.583374 835.299988 1061.349976 C 832.233337 1060.116699 829.666687 1058.349976 827.599976 1056.050049 C 825.533325 1053.75 823.966675 1051 822.900024 1047.800049 C 821.833313 1044.599976 821.299988 1041 821.299988 1037 C 821.299988 1032.799927 821.883301 1029.06665 823.049988 1025.800049 C 824.216675 1022.533325 825.899963 1019.799988 828.099976 1017.599976 C 830.299988 1015.399963 832.966675 1013.716675 836.099976 1012.549988 C 839.233337 1011.383301 842.733337 1010.799988 846.599976 1010.799988 C 849.400024 1010.799988 852.166626 1011.166687 854.900024 1011.900024 C 857.633362 1012.633362 860.049988 1014.016663 862.150024 1016.049988 C 864.25 1018.083374 865.866638 1020.883301 867 1024.449951 C 868.133362 1028.016724 868.533325 1032.633301 868.200012 1038.300049 L 829.5 1038.300049 C 829.5 1044.300049 831.116638 1048.783325 834.349976 1051.75 C 837.583374 1054.716675 841.899963 1056.199951 847.299988 1056.199951 C 849.100037 1056.199951 850.883301 1055.983398 852.650024 1055.550049 C 854.416687 1055.116699 856.099976 1054.599976 857.700012 1054 C 859.299988 1053.400024 860.716675 1052.733398 861.950012 1052 C 863.18335 1051.266602 864.133301 1050.599976 864.799988 1050 Z M 846.799988 1017.400024 C 844.599976 1017.400024 842.516663 1017.633301 840.549988 1018.099976 C 838.583313 1018.56665 836.850037 1019.349976 835.349976 1020.450012 C 833.849976 1021.549988 832.616699 1022.983337 831.650024 1024.75 C 830.68335 1026.516724 830.06665 1028.699951 829.799988 1031.300049 L 860.900024 1031.300049 C 860.56665 1026.900024 859.150024 1023.483337 856.650024 1021.049988 C 854.149963 1018.616638 850.866699 1017.400024 846.799988 1017.400024 Z M 788.900024 1023 L 798.900024 1050.800049 L 799.599976 1050.800049 L 806.700012 1012 L 814 1012 L 804.200012 1062 L 795.299988 1062 L 785.700012 1034.400024 L 785.400024 1034.400024 L 775.400024 1062 L 766.5 1062 L 756 1012 L 763.700012 1012 L 771.799988 1051 L 772.400024 1051 L 782.099976 1023 Z M 740.099976 990.799988 L 746.400024 993.599976 L 709.900024 1076 L 703.599976 1073.199951 Z M 665.200012 1052.300049 L 666.299988 1052.300049 L 682 1012 L 690.700012 1012 L 669.599976 1062 L 660.799988 1062 L 639.299988 1012 L 648.5 1012 Z M 627.900024 1055.699951 C 626.700012 1056.766724 625.283325 1057.766602 623.650024 1058.699951 C 622.016663 1059.633301 620.233337 1060.43335 618.299988 1061.099976 C 616.366638 1061.766724 614.350037 1062.283325 612.25 1062.650024 C 610.149963 1063.016724 608.033325 1063.199951 605.900024 1063.199951 C 601.899963 1063.199951 598.366699 1062.583374 595.299988 1061.349976 C 592.233337 1060.116699 589.666687 1058.349976 587.599976 1056.050049 C 585.533325 1053.75 583.966675 1051 582.900024 1047.800049 C 581.833313 1044.599976 581.299988 1041 581.299988 1037 C 581.299988 1032.799927 581.883301 1029.06665 583.049988 1025.800049 C 584.216675 1022.533325 585.899963 1019.799988 588.099976 1017.599976 C 590.299988 1015.399963 592.966675 1013.716675 596.099976 1012.549988 C 599.233337 1011.383301 602.733337 1010.799988 606.599976 1010.799988 C 609.400024 1010.799988 612.166626 1011.166687 614.900024 1011.900024 C 617.633362 1012.633362 620.049988 1014.016663 622.150024 1016.049988 C 624.25 1018.083374 625.866638 1020.883301 627 1024.449951 C 628.133362 1028.016724 628.533325 1032.633301 628.200012 1038.300049 L 589.5 1038.300049 C 589.5 1044.300049 591.116638 1048.783325 594.349976 1051.75 C 597.583374 1054.716675 601.899963 1056.199951 607.299988 1056.199951 C 609.100037 1056.199951 610.883301 1055.983398 612.650024 1055.550049 C 614.416687 1055.116699 616.099976 1054.599976 617.700012 1054 C 619.299988 1053.400024 620.716675 1052.733398 621.950012 1052 C 623.18335 1051.266602 624.133301 1050.599976 624.799988 1050 Z M 606.799988 1017.400024 C 604.599976 1017.400024 602.516663 1017.633301 600.549988 1018.099976 C 598.583313 1018.56665 596.850037 1019.349976 595.349976 1020.450012 C 593.849976 1021.549988 592.616699 1022.983337 591.650024 1024.75 C 590.68335 1026.516724 590.06665 1028.699951 589.799988 1031.300049 L 620.900024 1031.300049 C 620.56665 1026.900024 619.150024 1023.483337 616.650024 1021.049988 C 614.149963 1018.616638 610.866699 1017.400024 606.799988 1017.400024 Z M 549.900024 992 L 566.099976 992 L 566.099976 1044.900024 C 566.099976 1045.5 566.133362 1046.25 566.200012 1047.150024 C 566.266663 1048.050049 566.349976 1049 566.450012 1050 C 566.549988 1051 566.666687 1051.983276 566.799988 1052.949951 C 566.93335 1053.916626 567.06665 1054.766602 567.200012 1055.5 L 573.900024 1055.5 L 573.900024 1062 L 560.599976 1062 L 559.599976 1054.300049 L 559.200012 1054.300049 C 557.733337 1056.833374 555.549988 1058.949951 552.650024 1060.650024 C 549.75 1062.349976 546.400024 1063.199951 542.599976 1063.199951 C 535.06665 1063.199951 529.516724 1061.083374 525.950012 1056.849976 C 522.383301 1052.616699 520.600037 1046.033325 520.600037 1037.099976 C 520.600037 1032.900024 521.200012 1029.18335 522.400024 1025.949951 C 523.600037 1022.716675 525.31665 1020.016663 527.549988 1017.849976 C 529.783386 1015.68335 532.466675 1014.033325 535.599976 1012.900024 C 538.733337 1011.766663 542.233337 1011.200012 546.099976 1011.200012 C 547.5 1011.200012 548.75 1011.233337 549.849976 1011.299988 C 550.950012 1011.366699 551.966675 1011.466675 552.900024 1011.599976 C 553.833313 1011.733337 554.716675 1011.916687 555.549988 1012.150024 C 556.383362 1012.383301 557.299988 1012.633301 558.299988 1012.900024 L 558.299988 998.700012 L 549.900024 998.700012 Z M 543.900024 1056.5 C 547.966675 1056.5 551.166626 1055.449951 553.5 1053.349976 C 555.833374 1051.25 557.43335 1048.099976 558.299988 1043.900024 L 558.299988 1020.700012 C 556.833313 1019.700012 555.18335 1018.966675 553.349976 1018.5 C 551.516663 1018.033325 549.100037 1017.799988 546.099976 1017.799988 C 540.766663 1017.799988 536.566711 1019.349976 533.5 1022.450012 C 530.43335 1025.550049 528.900024 1030.43335 528.900024 1037.099976 C 528.900024 1039.833374 529.150024 1042.383301 529.650024 1044.75 C 530.150024 1047.116699 530.983337 1049.166626 532.150024 1050.900024 C 533.31665 1052.633301 534.866638 1054 536.799988 1055 C 538.733337 1056 541.099976 1056.5 543.900024 1056.5 Z M 500.100006 990.799988 L 506.399994 993.599976 L 469.899994 1076 L 463.600006 1073.199951 Z M 361.600006 992 L 368.399994 992 L 368.399994 1075 L 361.600006 1075 Z M 267.399994 1064.5 C 267.399994 1067.633301 266.800018 1070.383301 265.600006 1072.75 C 264.399994 1075.116699 262.750031 1077.06665 260.649994 1078.599976 C 258.549988 1080.133301 256.100037 1081.283325 253.300003 1082.050049 C 250.499985 1082.81665 247.46669 1083.199951 244.199997 1083.199951 C 240.266647 1083.199951 236.833344 1082.800049 233.899994 1082 C 230.96666 1081.199951 228.43335 1080.166626 226.300003 1078.900024 L 230.100006 1071.800049 C 230.699997 1072.333374 231.483322 1072.849976 232.449997 1073.349976 C 233.416672 1073.849976 234.533325 1074.31665 235.800003 1074.75 C 237.066666 1075.18335 238.416656 1075.533325 239.850006 1075.800049 C 241.28334 1076.06665 242.699997 1076.199951 244.100006 1076.199951 C 247.03334 1076.199951 249.483322 1075.93335 251.449997 1075.400024 C 253.416672 1074.866699 255 1074.033325 256.200012 1072.900024 C 257.400024 1071.766602 258.266663 1070.300049 258.800018 1068.5 C 259.333344 1066.699951 259.600006 1064.5 259.600006 1061.900024 L 259.600006 1056.300049 L 259.200012 1056.300049 C 257.666656 1058.5 255.700012 1060.199951 253.300003 1061.400024 C 250.899994 1062.599976 247.800018 1063.199951 244 1063.199951 C 236.399963 1063.199951 230.816681 1061.083374 227.25 1056.849976 C 223.683319 1052.616699 221.899994 1046.033325 221.899994 1037.099976 C 221.899994 1028.56665 224.166641 1022.116699 228.699997 1017.75 C 233.233353 1013.383301 239.966629 1011.200012 248.899994 1011.200012 C 253.033356 1011.200012 256.549988 1011.483337 259.450012 1012.049988 C 262.350037 1012.616699 265 1013.333313 267.399994 1014.200012 Z M 245.100006 1056.5 C 249.166687 1056.5 252.366653 1055.449951 254.699997 1053.349976 C 257.033356 1051.25 258.666656 1048.033325 259.600006 1043.699951 L 259.600006 1020 C 256.666656 1018.599976 252.566696 1017.900024 247.300003 1017.900024 C 241.966644 1017.900024 237.766678 1019.466675 234.699997 1022.599976 C 231.633316 1025.733398 230.100006 1030.533325 230.100006 1037 C 230.100006 1039.866699 230.366669 1042.483276 230.899994 1044.849976 C 231.433334 1047.216675 232.283325 1049.266602 233.449997 1051 C 234.616669 1052.733398 236.149994 1054.083374 238.050003 1055.050049 C 239.950012 1056.016724 242.299988 1056.5 245.100006 1056.5 Z M 160.699997 1037 C 160.699997 1028.93335 162.799973 1022.550049 167 1017.849976 C 171.200027 1013.149963 177.199966 1010.799988 185 1010.799988 C 189.200027 1010.799988 192.81665 1011.483337 195.850006 1012.849976 C 198.883347 1014.216675 201.399994 1016.06665 203.399994 1018.400024 C 205.400009 1020.733337 206.883331 1023.5 207.850006 1026.699951 C 208.816666 1029.900024 209.300003 1033.333252 209.300003 1037 C 209.300003 1041 208.766678 1044.616699 207.699997 1047.849976 C 206.633331 1051.083374 205.066681 1053.833374 203 1056.099976 C 200.933319 1058.366699 198.383347 1060.116699 195.350006 1061.349976 C 192.31665 1062.583374 188.866684 1063.199951 185 1063.199951 C 180.866653 1063.199951 177.266678 1062.516724 174.199997 1061.150024 C 171.133316 1059.783325 168.600006 1057.93335 166.600006 1055.599976 C 164.599991 1053.266602 163.116669 1050.5 162.149994 1047.300049 C 161.183334 1044.099976 160.699997 1040.666626 160.699997 1037 Z M 169 1037 C 169 1039.333374 169.283325 1041.666626 169.850006 1044 C 170.416672 1046.333374 171.333328 1048.43335 172.600006 1050.300049 C 173.866669 1052.166626 175.516663 1053.666626 177.550003 1054.800049 C 179.583344 1055.93335 182.06665 1056.5 185 1056.5 C 190.333359 1056.5 194.349991 1054.849976 197.050003 1051.550049 C 199.750015 1048.25 201.100006 1043.400024 201.100006 1037 C 201.100006 1034.599976 200.816666 1032.25 200.25 1029.949951 C 199.683334 1027.650024 198.75 1025.56665 197.449997 1023.700012 C 196.149994 1021.833313 194.483337 1020.333313 192.449997 1019.200012 C 190.416656 1018.06665 187.93335 1017.5 185 1017.5 C 179.666641 1017.5 175.666687 1019.133301 173 1022.400024 C 170.333313 1025.666626 169 1030.533325 169 1037 Z M 106.900002 992 L 123.5 992 L 123.5 1045.199951 C 123.5 1049.266724 124.183327 1052.133301 125.550003 1053.800049 C 126.916672 1055.466675 128.933319 1056.300049 131.600006 1056.300049 C 133.466675 1056.300049 135.25 1055.966675 136.949997 1055.300049 C 138.650009 1054.633301 140.533325 1053.5 142.600006 1051.900024 L 146.199997 1057.400024 C 145.133331 1058.333374 143.966675 1059.166626 142.699997 1059.900024 C 141.433334 1060.633301 140.133347 1061.25 138.800003 1061.75 C 137.46666 1062.25 136.133347 1062.633301 134.800003 1062.900024 C 133.46666 1063.166626 132.233337 1063.300049 131.100006 1063.300049 C 128.633331 1063.300049 126.433342 1062.983398 124.5 1062.349976 C 122.566658 1061.716675 120.950005 1060.699951 119.650002 1059.300049 C 118.349991 1057.900024 117.366669 1056.050049 116.699997 1053.75 C 116.033333 1051.449951 115.699997 1048.599976 115.699997 1045.199951 L 115.699997 998.700012 L 106.900002 998.700012 Z M 35.200001 992 L 51.200001 992 L 51.200001 1017.700012 L 51.700001 1017.700012 C 53.433342 1015.5 55.666653 1013.799988 58.400002 1012.599976 C 61.133347 1011.400024 64.099983 1010.799988 67.300003 1010.799988 C 81.966743 1010.799988 89.300003 1019.266602 89.300003 1036.199951 C 89.300003 1044.800049 86.933357 1051.383301 82.200005 1055.949951 C 77.466644 1060.516724 70.733376 1062.800049 62 1062.800049 C 57.866646 1062.800049 54.13335 1062.400024 50.799999 1061.599976 C 47.466652 1060.800049 45.03334 1059.866699 43.5 1058.800049 L 43.5 998.700012 L 35.200001 998.700012 Z M 66.300003 1017.5 C 62.29998 1017.5 59.066677 1018.633301 56.599998 1020.900024 C 54.13332 1023.166687 52.33334 1026.366699 51.200001 1030.5 L 51.200001 1053.5 C 52.733341 1054.300049 54.566654 1054.93335 56.700001 1055.400024 C 58.833344 1055.866699 61.066654 1056.099976 63.400002 1056.099976 C 66.066681 1056.099976 68.483322 1055.716675 70.650002 1054.949951 C 72.816681 1054.18335 74.666664 1052.983398 76.200005 1051.349976 C 77.733345 1049.716675 78.916664 1047.633301 79.75 1045.099976 C 80.583336 1042.56665 81 1039.56665 81 1036.099976 C 81 1033.56665 80.733337 1031.166626 80.200005 1028.900024 C 79.666664 1026.633301 78.816673 1024.650024 77.650002 1022.950012 C 76.48333 1021.25 74.966675 1019.916687 73.099998 1018.950012 C 71.233322 1017.983337 68.966682 1017.5 66.300003 1017.5 Z"/>
    <path id="web" fill="#d7dadc" fill-rule="evenodd" stroke="none" d="M 335.200012 52 L 351.200012 52 L 351.200012 77.699951 L 351.700012 77.699951 C 353.43335 75.5 355.666656 73.800049 358.399994 72.599976 C 361.133362 71.400024 364.099976 70.800049 367.299988 70.800049 C 381.966736 70.800049 389.299988 79.266602 389.299988 96.200012 C 389.299988 104.800049 386.93335 111.383301 382.200012 115.950012 C 377.466644 120.516663 370.733368 122.799988 362 122.799988 C 357.866638 122.799988 354.133362 122.400024 350.799988 121.599976 C 347.466644 120.799988 345.033356 119.866699 343.5 118.799988 L 343.5 58.699951 L 335.200012 58.699951 Z M 366.299988 77.5 C 362.299988 77.5 359.066681 78.633301 356.600006 80.900024 C 354.133331 83.166748 352.333344 86.366699 351.200012 90.5 L 351.200012 113.5 C 352.733337 114.299988 354.56665 114.93335 356.700012 115.400024 C 358.833344 115.866699 361.06665 116.099976 363.399994 116.099976 C 366.066681 116.099976 368.483337 115.716675 370.649994 114.950012 C 372.816681 114.18335 374.666656 112.983337 376.200012 111.349976 C 377.733337 109.716675 378.916656 107.633362 379.75 105.099976 C 380.583344 102.56665 381 99.566711 381 96.099976 C 381 93.56665 380.733337 91.166748 380.200012 88.900024 C 379.666656 86.633301 378.816681 84.650024 377.649994 82.949951 C 376.483337 81.25 374.966675 79.916748 373.100006 78.949951 C 371.233337 77.983398 368.966675 77.5 366.299988 77.5 Z M 327.899994 115.700012 C 326.699982 116.766663 325.283356 117.766663 323.649994 118.700012 C 322.016663 119.633362 320.233337 120.43335 318.299988 121.099976 C 316.366669 121.766663 314.350006 122.283325 312.25 122.650024 C 310.149994 123.016663 308.033356 123.200012 305.899994 123.200012 C 301.899994 123.200012 298.366669 122.583313 295.299988 121.349976 C 292.233307 120.116638 289.666687 118.350037 287.600006 116.049988 C 285.533325 113.75 283.966675 111 282.899994 107.799988 C 281.833313 104.599976 281.299988 101 281.299988 97 C 281.299988 92.800049 281.883331 89.06665 283.049988 85.800049 C 284.216675 82.533325 285.899994 79.800049 288.100006 77.599976 C 290.300018 75.400024 292.966644 73.716675 296.100006 72.550049 C 299.233337 71.383301 302.733307 70.800049 306.600006 70.800049 C 309.400024 70.800049 312.166656 71.166626 314.899994 71.900024 C 317.633362 72.633301 320.049988 74.016602 322.149994 76.050049 C 324.25 78.083252 325.866669 80.883301 327 84.449951 C 328.133331 88.016602 328.533325 92.633301 328.200012 98.299988 L 289.5 98.299988 C 289.5 104.300049 291.116638 108.783325 294.350006 111.75 C 297.583344 114.716675 301.899963 116.200012 307.299988 116.200012 C 309.100006 116.200012 310.883331 115.983337 312.649994 115.549988 C 314.416687 115.116638 316.100006 114.599976 317.700012 114 C 319.300018 113.400024 320.716675 112.733337 321.950012 112 C 323.18335 111.266663 324.133331 110.599976 324.799988 110 Z M 306.799988 77.400024 C 304.599976 77.400024 302.516663 77.633301 300.549988 78.099976 C 298.583313 78.56665 296.850006 79.349976 295.350006 80.449951 C 293.850006 81.550049 292.616669 82.983398 291.649994 84.75 C 290.683319 86.516602 290.066681 88.699951 289.799988 91.300049 L 320.899994 91.300049 C 320.56665 86.899902 319.150024 83.483398 316.649994 81.050049 C 314.149994 78.616699 310.866699 77.400024 306.799988 77.400024 Z M 248.899994 83 L 258.899994 110.799988 L 259.600006 110.799988 L 266.700012 72 L 274 72 L 264.200012 122 L 255.300003 122 L 245.699997 94.400024 L 245.399994 94.400024 L 235.399994 122 L 226.5 122 L 216 72 L 223.699997 72 L 231.800003 111 L 232.399994 111 L 242.100006 83 Z M 200.100006 50.800049 L 206.399994 53.599976 L 169.899994 136 L 163.600006 133.200012 Z M 120.900002 52 L 129.199997 52 L 129.199997 86.699951 L 127.5 104.299988 L 122.599998 104.299988 L 120.900002 86.699951 Z M 119.199997 117.400024 C 119.199997 115.599976 119.71666 114.18335 120.75 113.150024 C 121.78334 112.116638 123.166656 111.599976 124.900002 111.599976 C 126.700012 111.599976 128.133331 112.116638 129.199997 113.150024 C 130.266663 114.18335 130.800003 115.599976 130.800003 117.400024 C 130.800003 119.133362 130.266663 120.533325 129.199997 121.599976 C 128.133331 122.666687 126.700012 123.200012 124.900002 123.200012 C 123.166656 123.200012 121.78334 122.666687 120.75 121.599976 C 119.71666 120.533325 119.199997 119.133362 119.199997 117.400024 Z M 69.199997 99.5 L 54.700001 99.5 L 50.799999 116.200012 L 43.900002 116.200012 L 47.799999 99.5 L 38 99.5 L 39.400002 93.099976 L 49.299999 93.099976 L 52.400002 80 L 43 80 L 44.400002 73.599976 L 53.900002 73.599976 L 57.700001 57.800049 L 64.599998 57.800049 L 60.799999 73.599976 L 75.300003 73.599976 L 79.099998 57.800049 L 86 57.800049 L 82.199997 73.599976 L 91.900002 73.599976 L 90.300003 80 L 80.699997 80 L 77.599998 93.099976 L 86.900002 93.099976 L 85.300003 99.5 L 76.099998 99.5 L 72.199997 116.200012 L 65.300003 116.200012 Z M 56.200001 93.099976 L 70.699997 93.099976 L 73.800003 80 L 59.299999 80 Z"/>
</svg>
