<?xml version="1.0" encoding="UTF-8"?>
<svg width="120px" height="120px" viewBox="0 0 120 120" xmlns="http://www.w3.org/2000/svg" xmlns:xlink="http://www.w3.org/1999/xlink" version="1.1">
 <!-- Generated by Pixelmator Pro 2.3.3 -->
 <path id="Shape" d="M0 120 L120 120 120 0 0 0 Z" fill="#5a2673" fill-opacity="1" stroke="none"/>
 <path id="ï–" d="M91.737 64.755 C91.737 68.368 91.395 71.542 90.712 74.276 89.67 78.573 87.961 80.722 85.585 80.722 84.966 80.722 83.615 80.022 81.532 78.622 78.993 76.897 74.143 75.464 66.981 74.325 61.057 73.349 55.865 72.86 51.405 72.86 50.201 72.86 49.599 73.853 49.599 75.839 49.599 76.522 49.859 77.491 50.38 78.744 50.901 79.997 51.161 80.982 51.161 81.698 51.161 82.414 51.576 83.212 52.406 84.091 53.236 84.97 53.651 85.669 53.651 86.19 53.651 86.321 53.611 86.516 53.529 86.776 53.448 87.037 53.407 87.232 53.407 87.362 53.407 87.818 53.79 88.469 54.555 89.315 55.32 90.162 55.702 90.894 55.702 91.513 55.702 91.806 55.58 92.18 55.336 92.636 55.092 93.091 54.97 93.449 54.97 93.71 54.97 94.1 55.173 94.548 55.58 95.053 55.987 95.557 56.19 95.907 56.19 96.102 56.19 96.688 55.409 96.981 53.847 96.981 50.396 96.981 47.971 95.972 46.571 93.954 45.725 92.717 44.895 90.129 44.081 86.19 42.584 78.834 39.996 75.155 36.317 75.155 36.155 75.155 35.943 75.18 35.683 75.228 35.422 75.277 35.227 75.302 35.097 75.302 30.93 75.302 28.847 71.493 28.847 63.876 28.847 59.514 30.979 56.373 35.243 54.452 37.457 53.638 40.761 52.352 45.155 50.595 49.778 48.641 54.839 45.647 60.341 41.61 65.517 37.867 69.146 34.66 71.229 31.991 72.108 27.499 73.882 25.253 76.552 25.253 79.742 25.253 82.818 28.768 85.78 35.8 87.798 40.552 89.312 45.549 90.321 50.79 91.265 55.51 91.737 60.165 91.737 64.755 Z M31.679 74.765 C28.163 74.537 25.673 74.081 24.208 73.397 21.897 72.258 20.741 70.191 20.741 67.196 20.741 64.234 21.685 62.037 23.573 60.604 23.638 60.539 25.819 59.384 30.116 57.138 28.554 58.863 27.772 61.5 27.772 65.048 27.772 69.345 29.074 72.584 31.679 74.765 Z M79.286 61.483 C79.286 58.033 78.7 54.794 77.528 51.766 76.194 48.381 74.387 46.005 72.108 44.638 73.378 56.226 75.298 64.918 77.87 70.712 78.814 67.847 79.286 64.771 79.286 61.483 Z M79.237 75.692 C76.34 71.33 74.045 65.813 72.352 59.14 70.79 52.987 70.009 47.046 70.009 41.317 L70.692 35.751 C68.479 38.583 65.468 41.236 61.659 43.71 58.241 45.761 54.807 47.828 51.356 49.911 47.32 52.418 45.302 55.331 45.302 58.651 45.302 61.548 45.822 64.055 46.864 66.171 48.166 68.775 50.087 70.289 52.626 70.712 52.821 70.744 54.628 70.826 58.046 70.956 66.119 71.281 73.182 72.86 79.237 75.692 Z M28.016 72.714 C26.747 69.166 26.112 66.382 26.112 64.364 26.112 62.964 26.291 61.776 26.649 60.8 L25.575 61.093 C25.152 62.59 24.94 64.185 24.94 65.878 24.94 67.278 25.51 69.556 26.649 72.714 Z M25.331 72.421 C24.159 69.621 23.573 67.619 23.573 66.415 23.573 65.21 23.703 63.713 23.964 61.923 L22.597 62.85 C22.369 64.153 22.255 65.373 22.255 66.513 22.255 68.01 22.89 69.833 24.159 71.981 Z" fill="#d7dadc" fill-opacity="1" stroke="none"/>
 <path id="{" d="M7.333 37.489 C7.333 36.533 7.172 35.706 6.85 35.006 6.528 34.306 6.128 33.722 5.65 33.256 5.172 32.789 4.661 32.444 4.117 32.222 3.572 32 3.089 31.889 2.667 31.889 L2.667 29.556 C3.089 29.556 3.572 29.461 4.117 29.272 4.661 29.083 5.172 28.772 5.65 28.339 6.128 27.906 6.528 27.344 6.85 26.656 7.172 25.967 7.333 25.111 7.333 24.089 L7.333 20.689 C7.333 19.889 7.461 19.156 7.717 18.489 7.972 17.822 8.328 17.244 8.783 16.756 9.239 16.267 9.783 15.883 10.417 15.606 11.05 15.328 11.744 15.189 12.5 15.189 L17.333 15.189 17.333 17.522 13.667 17.522 C12.267 17.522 11.294 17.856 10.75 18.522 10.206 19.189 9.933 20.178 9.933 21.489 L9.933 24.722 C9.933 25.633 9.767 26.444 9.433 27.156 9.1 27.867 8.7 28.461 8.233 28.939 7.767 29.417 7.289 29.794 6.8 30.072 6.311 30.35 5.911 30.511 5.6 30.556 L5.6 30.756 C5.889 30.8 6.278 30.972 6.767 31.272 7.256 31.572 7.733 31.983 8.2 32.506 8.667 33.028 9.072 33.644 9.417 34.356 9.761 35.067 9.933 35.856 9.933 36.722 L9.933 39.922 C9.933 41.278 10.222 42.278 10.8 42.922 11.378 43.567 12.344 43.889 13.7 43.889 L17.333 43.889 17.333 46.222 12.5 46.222 C10.944 46.222 9.694 45.761 8.75 44.839 7.806 43.917 7.333 42.556 7.333 40.756 Z" fill="#d7dadc" fill-opacity="1" stroke="none"/>
 <path id="}" d="M112.667 100.756 C112.667 102.556 112.194 103.917 111.25 104.839 110.306 105.761 109.056 106.222 107.5 106.222 L102.667 106.222 102.667 103.889 106.3 103.889 C107.656 103.889 108.622 103.567 109.2 102.922 109.778 102.278 110.067 101.278 110.067 99.922 L110.067 96.722 C110.067 95.856 110.233 95.067 110.567 94.356 110.9 93.644 111.3 93.028 111.767 92.506 112.233 91.983 112.711 91.572 113.2 91.272 113.689 90.972 114.089 90.8 114.4 90.756 L114.4 90.556 C114.089 90.511 113.689 90.35 113.2 90.072 112.711 89.794 112.233 89.417 111.767 88.939 111.3 88.461 110.9 87.867 110.567 87.156 110.233 86.444 110.067 85.633 110.067 84.722 L110.067 81.489 C110.067 80.178 109.794 79.189 109.25 78.522 108.706 77.856 107.733 77.522 106.333 77.522 L102.667 77.522 102.667 75.189 107.5 75.189 C108.256 75.189 108.95 75.328 109.583 75.606 110.217 75.883 110.761 76.267 111.217 76.756 111.672 77.244 112.028 77.822 112.283 78.489 112.539 79.156 112.667 79.889 112.667 80.689 L112.667 84.089 C112.667 85.111 112.828 85.967 113.15 86.656 113.472 87.344 113.872 87.906 114.35 88.339 114.828 88.772 115.339 89.083 115.883 89.272 116.428 89.461 116.911 89.556 117.333 89.556 L117.333 91.889 C116.911 91.889 116.428 92 115.883 92.222 115.339 92.444 114.828 92.789 114.35 93.256 113.872 93.722 113.472 94.306 113.15 95.006 112.828 95.706 112.667 96.533 112.667 97.489 Z" fill="#d7dadc" fill-opacity="1" stroke="none"/>
 <path id="blog-|-/dev/web" d="M95.022 108 L96.8 108 96.8 110.856 96.856 110.856 C97.048 110.611 97.296 110.422 97.6 110.289 97.904 110.156 98.233 110.089 98.589 110.089 100.219 110.089 101.033 111.03 101.033 112.911 101.033 113.867 100.77 114.598 100.244 115.106 99.719 115.613 98.97 115.867 98 115.867 97.541 115.867 97.126 115.822 96.756 115.733 96.385 115.644 96.115 115.541 95.944 115.422 L95.944 108.744 95.022 108.744 Z M98.478 110.833 C98.033 110.833 97.674 110.959 97.4 111.211 97.126 111.463 96.926 111.819 96.8 112.278 L96.8 114.833 C96.97 114.922 97.174 114.993 97.411 115.044 97.648 115.096 97.896 115.122 98.156 115.122 98.452 115.122 98.72 115.08 98.961 114.994 99.202 114.909 99.407 114.776 99.578 114.594 99.748 114.413 99.88 114.181 99.972 113.9 100.065 113.619 100.111 113.285 100.111 112.9 100.111 112.619 100.081 112.352 100.022 112.1 99.963 111.848 99.869 111.628 99.739 111.439 99.609 111.25 99.441 111.102 99.233 110.994 99.026 110.887 98.774 110.833 98.478 110.833 Z M94.211 115.078 C94.078 115.196 93.92 115.307 93.739 115.411 93.557 115.515 93.359 115.604 93.144 115.678 92.93 115.752 92.706 115.809 92.472 115.85 92.239 115.891 92.004 115.911 91.767 115.911 91.322 115.911 90.93 115.843 90.589 115.706 90.248 115.569 89.963 115.372 89.733 115.117 89.504 114.861 89.33 114.556 89.211 114.2 89.093 113.844 89.033 113.444 89.033 113 89.033 112.533 89.098 112.119 89.228 111.756 89.357 111.393 89.544 111.089 89.789 110.844 90.033 110.6 90.33 110.413 90.678 110.283 91.026 110.154 91.415 110.089 91.844 110.089 92.156 110.089 92.463 110.13 92.767 110.211 93.07 110.293 93.339 110.446 93.572 110.672 93.806 110.898 93.985 111.209 94.111 111.606 94.237 112.002 94.281 112.515 94.244 113.144 L89.944 113.144 C89.944 113.811 90.124 114.309 90.483 114.639 90.843 114.969 91.322 115.133 91.922 115.133 92.122 115.133 92.32 115.109 92.517 115.061 92.713 115.013 92.9 114.956 93.078 114.889 93.256 114.822 93.413 114.748 93.55 114.667 93.687 114.585 93.793 114.511 93.867 114.444 Z M91.867 110.822 C91.622 110.822 91.391 110.848 91.172 110.9 90.954 110.952 90.761 111.039 90.594 111.161 90.428 111.283 90.291 111.443 90.183 111.639 90.076 111.835 90.007 112.078 89.978 112.367 L93.433 112.367 C93.396 111.878 93.239 111.498 92.961 111.228 92.683 110.957 92.319 110.822 91.867 110.822 Z M85.433 111.444 L86.544 114.533 86.622 114.533 87.411 110.222 88.222 110.222 87.133 115.778 86.144 115.778 85.078 112.711 85.044 112.711 83.933 115.778 82.944 115.778 81.778 110.222 82.633 110.222 83.533 114.556 83.6 114.556 84.678 111.444 Z M80.011 107.867 L80.711 108.178 76.656 117.333 75.956 117.022 Z M71.689 114.7 L71.811 114.7 73.556 110.222 74.522 110.222 72.178 115.778 71.2 115.778 68.811 110.222 69.833 110.222 Z M67.544 115.078 C67.411 115.196 67.254 115.307 67.072 115.411 66.891 115.515 66.693 115.604 66.478 115.678 66.263 115.752 66.039 115.809 65.806 115.85 65.572 115.891 65.337 115.911 65.1 115.911 64.656 115.911 64.263 115.843 63.922 115.706 63.581 115.569 63.296 115.372 63.067 115.117 62.837 114.861 62.663 114.556 62.544 114.2 62.426 113.844 62.367 113.444 62.367 113 62.367 112.533 62.431 112.119 62.561 111.756 62.691 111.393 62.878 111.089 63.122 110.844 63.367 110.6 63.663 110.413 64.011 110.283 64.359 110.154 64.748 110.089 65.178 110.089 65.489 110.089 65.796 110.13 66.1 110.211 66.404 110.293 66.672 110.446 66.906 110.672 67.139 110.898 67.319 111.209 67.444 111.606 67.57 112.002 67.615 112.515 67.578 113.144 L63.278 113.144 C63.278 113.811 63.457 114.309 63.817 114.639 64.176 114.969 64.656 115.133 65.256 115.133 65.456 115.133 65.654 115.109 65.85 115.061 66.046 115.013 66.233 114.956 66.411 114.889 66.589 114.822 66.746 114.748 66.883 114.667 67.02 114.585 67.126 114.511 67.2 114.444 Z M65.2 110.822 C64.956 110.822 64.724 110.848 64.506 110.9 64.287 110.952 64.094 111.039 63.928 111.161 63.761 111.283 63.624 111.443 63.517 111.639 63.409 111.835 63.341 112.078 63.311 112.367 L66.767 112.367 C66.73 111.878 66.572 111.498 66.294 111.228 66.017 110.957 65.652 110.822 65.2 110.822 Z M58.878 108 L60.678 108 60.678 113.878 C60.678 113.944 60.681 114.028 60.689 114.128 60.696 114.228 60.706 114.333 60.717 114.444 60.728 114.556 60.741 114.665 60.756 114.772 60.77 114.88 60.785 114.974 60.8 115.056 L61.544 115.056 61.544 115.778 60.067 115.778 59.956 114.922 59.911 114.922 C59.748 115.204 59.506 115.439 59.183 115.628 58.861 115.817 58.489 115.911 58.067 115.911 57.23 115.911 56.613 115.676 56.217 115.206 55.82 114.735 55.622 114.004 55.622 113.011 55.622 112.544 55.689 112.131 55.822 111.772 55.956 111.413 56.146 111.113 56.394 110.872 56.643 110.631 56.941 110.448 57.289 110.322 57.637 110.196 58.026 110.133 58.456 110.133 58.611 110.133 58.75 110.137 58.872 110.144 58.994 110.152 59.107 110.163 59.211 110.178 59.315 110.193 59.413 110.213 59.506 110.239 59.598 110.265 59.7 110.293 59.811 110.322 L59.811 108.744 58.878 108.744 Z M58.211 115.167 C58.663 115.167 59.019 115.05 59.278 114.817 59.537 114.583 59.715 114.233 59.811 113.767 L59.811 111.189 C59.648 111.078 59.465 110.996 59.261 110.944 59.057 110.893 58.789 110.867 58.456 110.867 57.863 110.867 57.396 111.039 57.056 111.383 56.715 111.728 56.544 112.27 56.544 113.011 56.544 113.315 56.572 113.598 56.628 113.861 56.683 114.124 56.776 114.352 56.906 114.544 57.035 114.737 57.207 114.889 57.422 115 57.637 115.111 57.9 115.167 58.211 115.167 Z M53.344 107.867 L54.044 108.178 49.989 117.333 49.289 117.022 Z M37.956 108 L38.711 108 38.711 117.222 37.956 117.222 Z M27.489 116.056 C27.489 116.404 27.422 116.709 27.289 116.972 27.156 117.235 26.972 117.452 26.739 117.622 26.506 117.793 26.233 117.92 25.922 118.006 25.611 118.091 25.274 118.133 24.911 118.133 24.474 118.133 24.093 118.089 23.767 118 23.441 117.911 23.159 117.796 22.922 117.656 L23.344 116.867 C23.411 116.926 23.498 116.983 23.606 117.039 23.713 117.094 23.837 117.146 23.978 117.194 24.119 117.243 24.269 117.281 24.428 117.311 24.587 117.341 24.744 117.356 24.9 117.356 25.226 117.356 25.498 117.326 25.717 117.267 25.935 117.207 26.111 117.115 26.244 116.989 26.378 116.863 26.474 116.7 26.533 116.5 26.593 116.3 26.622 116.056 26.622 115.767 L26.622 115.144 26.578 115.144 C26.407 115.389 26.189 115.578 25.922 115.711 25.656 115.844 25.311 115.911 24.889 115.911 24.044 115.911 23.424 115.676 23.028 115.206 22.631 114.735 22.433 114.004 22.433 113.011 22.433 112.063 22.685 111.346 23.189 110.861 23.693 110.376 24.441 110.133 25.433 110.133 25.893 110.133 26.283 110.165 26.606 110.228 26.928 110.291 27.222 110.37 27.489 110.467 Z M25.011 115.167 C25.463 115.167 25.819 115.05 26.078 114.817 26.337 114.583 26.519 114.226 26.622 113.744 L26.622 111.111 C26.296 110.956 25.841 110.878 25.256 110.878 24.663 110.878 24.196 111.052 23.856 111.4 23.515 111.748 23.344 112.281 23.344 113 23.344 113.319 23.374 113.609 23.433 113.872 23.493 114.135 23.587 114.363 23.717 114.556 23.846 114.748 24.017 114.898 24.228 115.006 24.439 115.113 24.7 115.167 25.011 115.167 Z M15.633 113 C15.633 112.104 15.867 111.394 16.333 110.872 16.8 110.35 17.467 110.089 18.333 110.089 18.8 110.089 19.202 110.165 19.539 110.317 19.876 110.469 20.156 110.674 20.378 110.933 20.6 111.193 20.765 111.5 20.872 111.856 20.98 112.211 21.033 112.593 21.033 113 21.033 113.444 20.974 113.846 20.856 114.206 20.737 114.565 20.563 114.87 20.333 115.122 20.104 115.374 19.82 115.569 19.483 115.706 19.146 115.843 18.763 115.911 18.333 115.911 17.874 115.911 17.474 115.835 17.133 115.683 16.793 115.531 16.511 115.326 16.289 115.067 16.067 114.807 15.902 114.5 15.794 114.144 15.687 113.789 15.633 113.407 15.633 113 Z M16.556 113 C16.556 113.259 16.587 113.519 16.65 113.778 16.713 114.037 16.815 114.27 16.956 114.478 17.096 114.685 17.28 114.852 17.506 114.978 17.731 115.104 18.007 115.167 18.333 115.167 18.926 115.167 19.372 114.983 19.672 114.617 19.972 114.25 20.122 113.711 20.122 113 20.122 112.733 20.091 112.472 20.028 112.217 19.965 111.961 19.861 111.73 19.717 111.522 19.572 111.315 19.387 111.148 19.161 111.022 18.935 110.896 18.659 110.833 18.333 110.833 17.741 110.833 17.296 111.015 17 111.378 16.704 111.741 16.556 112.281 16.556 113 Z M9.656 108 L11.5 108 11.5 113.911 C11.5 114.363 11.576 114.681 11.728 114.867 11.88 115.052 12.104 115.144 12.4 115.144 12.607 115.144 12.806 115.107 12.994 115.033 13.183 114.959 13.393 114.833 13.622 114.656 L14.022 115.267 C13.904 115.37 13.774 115.463 13.633 115.544 13.493 115.626 13.348 115.694 13.2 115.75 13.052 115.806 12.904 115.848 12.756 115.878 12.607 115.907 12.47 115.922 12.344 115.922 12.07 115.922 11.826 115.887 11.611 115.817 11.396 115.746 11.217 115.633 11.072 115.478 10.928 115.322 10.819 115.117 10.744 114.861 10.67 114.606 10.633 114.289 10.633 113.911 L10.633 108.744 9.656 108.744 Z M1.689 108 L3.467 108 3.467 110.856 3.522 110.856 C3.715 110.611 3.963 110.422 4.267 110.289 4.57 110.156 4.9 110.089 5.256 110.089 6.885 110.089 7.7 111.03 7.7 112.911 7.7 113.867 7.437 114.598 6.911 115.106 6.385 115.613 5.637 115.867 4.667 115.867 4.207 115.867 3.793 115.822 3.422 115.733 3.052 115.644 2.781 115.541 2.611 115.422 L2.611 108.744 1.689 108.744 Z M5.144 110.833 C4.7 110.833 4.341 110.959 4.067 111.211 3.793 111.463 3.593 111.819 3.467 112.278 L3.467 114.833 C3.637 114.922 3.841 114.993 4.078 115.044 4.315 115.096 4.563 115.122 4.822 115.122 5.119 115.122 5.387 115.08 5.628 114.994 5.869 114.909 6.074 114.776 6.244 114.594 6.415 114.413 6.546 114.181 6.639 113.9 6.731 113.619 6.778 113.285 6.778 112.9 6.778 112.619 6.748 112.352 6.689 112.1 6.63 111.848 6.535 111.628 6.406 111.439 6.276 111.25 6.107 111.102 5.9 110.994 5.693 110.887 5.441 110.833 5.144 110.833 Z" fill="#d7dadc" fill-opacity="1" stroke="none"/>
 <path id="#!/web" d="M35.022 3.556 L36.8 3.556 36.8 6.411 36.856 6.411 C37.048 6.167 37.296 5.978 37.6 5.844 37.904 5.711 38.233 5.644 38.589 5.644 40.219 5.644 41.033 6.585 41.033 8.467 41.033 9.422 40.77 10.154 40.244 10.661 39.719 11.169 38.97 11.422 38 11.422 37.541 11.422 37.126 11.378 36.756 11.289 36.385 11.2 36.115 11.096 35.944 10.978 L35.944 4.3 35.022 4.3 Z M38.478 6.389 C38.033 6.389 37.674 6.515 37.4 6.767 37.126 7.019 36.926 7.374 36.8 7.833 L36.8 10.389 C36.97 10.478 37.174 10.548 37.411 10.6 37.648 10.652 37.896 10.678 38.156 10.678 38.452 10.678 38.72 10.635 38.961 10.55 39.202 10.465 39.407 10.331 39.578 10.15 39.748 9.969 39.88 9.737 39.972 9.456 40.065 9.174 40.111 8.841 40.111 8.456 40.111 8.174 40.081 7.907 40.022 7.656 39.963 7.404 39.869 7.183 39.739 6.994 39.609 6.806 39.441 6.657 39.233 6.55 39.026 6.443 38.774 6.389 38.478 6.389 Z M34.211 10.633 C34.078 10.752 33.92 10.863 33.739 10.967 33.557 11.07 33.359 11.159 33.144 11.233 32.93 11.307 32.706 11.365 32.472 11.406 32.239 11.446 32.004 11.467 31.767 11.467 31.322 11.467 30.93 11.398 30.589 11.261 30.248 11.124 29.963 10.928 29.733 10.672 29.504 10.417 29.33 10.111 29.211 9.756 29.093 9.4 29.033 9 29.033 8.556 29.033 8.089 29.098 7.674 29.228 7.311 29.357 6.948 29.544 6.644 29.789 6.4 30.033 6.156 30.33 5.969 30.678 5.839 31.026 5.709 31.415 5.644 31.844 5.644 32.156 5.644 32.463 5.685 32.767 5.767 33.07 5.848 33.339 6.002 33.572 6.228 33.806 6.454 33.985 6.765 34.111 7.161 34.237 7.557 34.281 8.07 34.244 8.7 L29.944 8.7 C29.944 9.367 30.124 9.865 30.483 10.194 30.843 10.524 31.322 10.689 31.922 10.689 32.122 10.689 32.32 10.665 32.517 10.617 32.713 10.569 32.9 10.511 33.078 10.444 33.256 10.378 33.413 10.304 33.55 10.222 33.687 10.141 33.793 10.067 33.867 10 Z M31.867 6.378 C31.622 6.378 31.391 6.404 31.172 6.456 30.954 6.507 30.761 6.594 30.594 6.717 30.428 6.839 30.291 6.998 30.183 7.194 30.076 7.391 30.007 7.633 29.978 7.922 L33.433 7.922 C33.396 7.433 33.239 7.054 32.961 6.783 32.683 6.513 32.319 6.378 31.867 6.378 Z M25.433 7 L26.544 10.089 26.622 10.089 27.411 5.778 28.222 5.778 27.133 11.333 26.144 11.333 25.078 8.267 25.044 8.267 23.933 11.333 22.944 11.333 21.778 5.778 22.633 5.778 23.533 10.111 23.6 10.111 24.678 7 Z M20.011 3.422 L20.711 3.733 16.656 12.889 15.956 12.578 Z M11.211 3.556 L12.133 3.556 12.133 7.411 11.944 9.367 11.4 9.367 11.211 7.411 Z M11.022 10.822 C11.022 10.622 11.08 10.465 11.194 10.35 11.309 10.235 11.463 10.178 11.656 10.178 11.856 10.178 12.015 10.235 12.133 10.35 12.252 10.465 12.311 10.622 12.311 10.822 12.311 11.015 12.252 11.17 12.133 11.289 12.015 11.407 11.856 11.467 11.656 11.467 11.463 11.467 11.309 11.407 11.194 11.289 11.08 11.17 11.022 11.015 11.022 10.822 Z M5.467 8.833 L3.856 8.833 3.422 10.689 2.656 10.689 3.089 8.833 2 8.833 2.156 8.122 3.256 8.122 3.6 6.667 2.556 6.667 2.711 5.956 3.767 5.956 4.189 4.2 4.956 4.2 4.533 5.956 6.144 5.956 6.567 4.2 7.333 4.2 6.911 5.956 7.989 5.956 7.811 6.667 6.744 6.667 6.4 8.122 7.433 8.122 7.256 8.833 6.233 8.833 5.8 10.689 5.033 10.689 Z M4.022 8.122 L5.633 8.122 5.978 6.667 4.367 6.667 Z" fill="#d7dadc" fill-opacity="1" stroke="none"/>
</svg>
