<?xml version="1.0" standalone="no"?>
<!DOCTYPE svg PUBLIC "-//W3C//DTD SVG 20010904//EN"
 "http://www.w3.org/TR/2001/REC-SVG-20010904/DTD/svg10.dtd">
<svg version="1.0" xmlns="http://www.w3.org/2000/svg"
 width="700.000000pt" height="700.000000pt" viewBox="0 0 700.000000 700.000000"
 preserveAspectRatio="xMidYMid meet">
<metadata>
Created by potrace 1.14, written by Peter Selinger 2001-2017
</metadata>
<g transform="translate(0.000000,700.000000) scale(0.100000,-0.100000)"
fill="#000000" stroke="none">
<path d="M0 3500 l0 -3500 3500 0 3500 0 0 3500 0 3500 -3500 0 -3500 0 0
-3500z m700 3138 c0 -143 -8 -193 -27 -174 -4 4 -10 79 -11 167 -4 156 -3 159
17 159 20 0 21 -4 21 -152z m494 143 c8 -12 -215 -512 -232 -518 -7 -3 -16 -3
-19 1 -9 9 220 525 234 526 6 0 14 -4 17 -9z m946 -77 l0 -85 32 22 c40 29
121 31 160 5 57 -37 75 -150 36 -226 -33 -64 -74 -82 -169 -77 -41 2 -81 7
-87 11 -9 5 -12 62 -12 202 l0 194 -25 0 c-18 0 -25 5 -25 20 0 17 7 20 45 20
l45 0 0 -86z m-1864 10 c-4 -19 -10 -42 -13 -50 -5 -12 4 -15 48 -12 l54 3 9
48 c7 37 14 47 29 47 15 0 18 -5 13 -25 -3 -14 -9 -36 -12 -50 -6 -23 -3 -25
26 -25 41 0 35 -24 -7 -28 -27 -3 -32 -8 -42 -47 -14 -58 -15 -55 19 -55 22 0
28 -4 24 -15 -4 -8 -19 -15 -34 -15 -30 0 -34 -6 -46 -72 -5 -29 -11 -38 -26
-38 -17 0 -19 4 -14 26 22 88 24 84 -32 84 l-51 0 -12 -55 c-10 -44 -16 -55
-32 -55 -13 0 -17 5 -13 16 3 9 9 33 12 55 6 38 6 39 -24 39 -24 0 -30 4 -26
15 4 8 19 15 34 15 34 0 37 4 46 58 6 40 5 42 -20 42 -39 0 -34 28 6 32 27 3
33 8 40 38 14 55 16 60 34 60 13 0 15 -7 10 -36z m1664 -73 c33 -24 50 -58 50
-103 l0 -38 -120 0 c-135 0 -141 -4 -117 -62 9 -22 27 -41 50 -51 45 -22 65
-21 126 2 41 15 51 16 55 5 17 -45 -160 -73 -220 -36 -82 52 -86 227 -7 279
54 36 136 37 183 4z m-600 -93 c23 -116 33 -147 42 -132 3 5 18 46 33 92 23
71 30 83 47 80 16 -2 28 -22 51 -90 17 -49 34 -88 37 -88 6 0 14 38 46 218 5
23 12 32 25 32 11 0 19 -2 19 -3 0 -2 -13 -73 -30 -158 -16 -85 -30 -155 -30
-157 0 -2 -12 -2 -27 0 -24 3 -29 12 -56 91 -16 49 -33 85 -37 80 -5 -4 -22
-44 -38 -88 -25 -70 -32 -80 -54 -83 -25 -3 -27 1 -38 55 -6 32 -20 98 -31
148 -23 110 -23 115 -1 115 16 0 22 -18 42 -112z m-632 -180 c3 -24 0 -28 -23
-28 -27 0 -41 20 -31 46 10 27 51 13 54 -18z m302 -323 l0 -65 -139 0 c-187 0
-232 -17 -272 -105 -15 -32 -19 -65 -19 -170 -1 -161 -12 -241 -42 -302 -30
-62 -106 -136 -168 -165 -28 -13 -50 -25 -50 -28 0 -3 17 -12 37 -20 48 -17
151 -121 181 -183 30 -61 41 -141 42 -297 0 -135 13 -183 61 -227 40 -36 74
-43 225 -43 l144 0 0 -65 0 -65 -175 0 c-202 0 -254 13 -317 77 -70 72 -81
113 -87 333 -7 217 -14 243 -86 327 -37 44 -123 93 -162 93 -22 0 -23 4 -23
63 l0 64 58 16 c72 20 142 79 180 151 25 48 26 61 33 246 4 108 12 211 19 230
28 83 113 166 194 189 17 5 106 10 199 10 l167 1 0 -65z m3568 -550 c114 -53
237 -203 345 -420 207 -419 353 -951 408 -1490 16 -156 16 -544 1 -665 -40
-312 -118 -517 -222 -586 -27 -18 -59 -29 -94 -32 -59 -5 -90 8 -209 84 -146
94 -268 144 -487 199 -335 84 -821 152 -1160 162 -186 5 -196 5 -221 -15 -14
-11 -31 -38 -37 -60 -21 -70 -14 -126 33 -266 25 -74 45 -148 45 -166 0 -43
22 -87 77 -151 60 -70 73 -102 61 -147 -13 -47 -5 -73 45 -134 87 -108 94
-136 56 -222 -23 -54 -18 -84 26 -142 53 -70 23 -94 -118 -94 -153 0 -266 36
-352 112 -79 70 -125 185 -195 488 -64 280 -112 406 -195 520 -85 115 -164
151 -325 147 -81 -2 -102 1 -142 21 -150 74 -228 278 -228 602 0 144 16 227
60 309 44 81 101 144 183 198 81 55 99 62 462 204 285 111 409 166 566 254
405 227 942 631 1133 852 55 64 65 83 84 153 41 152 102 248 184 289 61 30
147 28 216 -4z m-2872 -1892 c-14 -21 -37 -74 -53 -118 -26 -76 -27 -89 -28
-270 0 -172 2 -197 23 -265 32 -101 72 -177 130 -247 l49 -59 -86 8 c-110 10
-229 34 -295 58 -153 58 -231 184 -229 375 1 106 14 168 49 240 43 87 97 131
287 231 95 50 173 90 175 88 2 -1 -8 -19 -22 -41z m4646 -1003 c84 -24 169
-104 198 -190 7 -19 15 -122 19 -230 7 -185 8 -198 33 -246 38 -72 108 -131
180 -151 l58 -16 0 -64 c0 -59 -1 -63 -23 -63 -39 0 -125 -49 -162 -93 -72
-84 -79 -110 -86 -327 -6 -220 -17 -261 -87 -333 -63 -64 -115 -77 -317 -77
l-175 0 0 65 0 65 144 0 c151 0 185 7 225 43 48 45 61 91 61 232 0 159 12 233
46 302 33 64 125 155 177 174 20 7 37 16 37 19 0 3 -23 16 -52 29 -63 29 -135
100 -166 164 -30 61 -41 141 -42 302 0 105 -4 138 -19 170 -40 88 -85 105
-272 105 l-139 0 0 65 0 65 163 0 c89 0 179 -5 199 -10z m-6152 -1985 l0 -85
33 20 c35 22 99 26 141 10 43 -16 66 -66 66 -144 0 -119 -49 -166 -175 -166
-110 0 -105 -10 -105 215 l0 195 -30 0 c-23 0 -30 4 -30 20 0 17 7 20 50 20
l50 0 0 -85z m470 -109 c0 -218 4 -233 64 -223 17 3 40 7 51 9 35 6 22 -25
-17 -40 -51 -19 -103 -9 -126 26 -14 22 -18 56 -20 204 l-4 178 -24 0 c-17 0
-24 6 -24 20 0 17 7 20 50 20 l50 0 0 -194z m1580 -71 c0 -229 -2 -265 -15
-265 -13 0 -15 36 -15 265 0 229 2 265 15 265 13 0 15 -36 15 -265z m886 257
c7 -5 -28 -95 -105 -269 -64 -145 -118 -263 -121 -263 -33 0 -24 29 87 278 64
144 119 262 122 262 3 0 11 -4 17 -8z m406 -199 c3 -207 3 -208 26 -211 40 -6
26 -32 -18 -32 -34 0 -41 4 -46 25 l-6 25 -29 -25 c-38 -31 -84 -40 -133 -23
-57 19 -78 53 -83 135 -5 77 12 122 60 157 23 17 43 21 103 21 l74 0 0 48 c0
44 -2 47 -25 47 -18 0 -25 5 -25 20 0 17 7 20 50 20 l50 0 2 -207z m1153 198
c5 -8 -207 -503 -224 -523 -3 -4 -12 -3 -20 2 -14 8 -1 41 190 468 27 59 41
73 54 53z m945 -76 c0 -47 3 -85 6 -85 3 0 17 9 31 20 39 31 122 28 162 -6 37
-31 55 -91 47 -158 -11 -94 -62 -136 -168 -136 -37 0 -78 4 -92 10 l-26 10 0
195 0 195 -25 0 c-18 0 -25 5 -25 20 0 17 7 20 45 20 l45 0 0 -85z m-4484 -64
c86 -52 86 -223 1 -285 -37 -27 -131 -29 -171 -3 -44 30 -66 75 -66 140 0 114
48 167 150 167 36 0 66 -6 86 -19z m419 9 l26 -10 -3 -184 c-3 -177 -4 -185
-26 -209 -29 -31 -101 -50 -157 -42 -56 9 -69 18 -61 43 7 19 9 20 41 6 95
-39 165 2 165 98 l0 29 -31 -23 c-23 -17 -44 -23 -82 -22 -93 1 -132 48 -132
159 0 111 56 165 172 165 34 0 74 -4 88 -10z m2304 -5 c31 -16 61 -77 61 -125
l0 -30 -125 0 -125 0 0 -25 c0 -14 13 -39 29 -57 27 -30 34 -33 89 -33 39 1
68 7 86 18 25 16 27 17 33 1 8 -23 -18 -41 -81 -55 -119 -26 -206 44 -206 166
1 47 35 112 72 135 40 24 126 27 167 5z m244 -114 c29 -69 57 -126 62 -128 6
-1 32 56 60 127 44 116 52 130 73 130 15 0 22 -5 19 -13 -2 -7 -33 -79 -67
-160 -58 -136 -65 -147 -89 -147 -24 0 -31 12 -91 152 -36 84 -67 156 -69 161
-2 5 9 7 24 5 24 -3 32 -16 78 -127z m716 18 c34 -168 32 -167 72 -56 48 138
61 133 118 -45 22 -68 24 -63 67 180 5 23 12 32 25 32 11 0 19 -4 19 -8 0 -5
-13 -76 -30 -157 -16 -81 -30 -150 -30 -152 0 -2 -12 -3 -26 -1 -23 3 -30 13
-59 93 -26 71 -35 86 -41 70 -4 -11 -20 -51 -34 -90 -22 -61 -29 -70 -53 -73
-15 -2 -27 -1 -27 2 0 4 -13 70 -30 148 -35 166 -35 168 -11 168 15 0 22 -17
40 -111z m599 95 c32 -22 52 -66 52 -114 l0 -40 -125 0 c-79 0 -125 -4 -125
-10 0 -6 6 -26 14 -45 26 -62 103 -82 183 -46 37 17 42 18 47 4 8 -19 10 -16
-34 -38 -21 -11 -58 -19 -95 -19 -102 -2 -155 55 -155 165 0 63 30 122 74 143
41 21 135 21 164 0z"/>
<path d="M2178 6601 c-32 -28 -33 -32 -36 -120 l-4 -90 43 -11 c32 -9 53 -9
79 -1 58 17 74 42 78 121 4 66 3 71 -26 100 -41 41 -89 41 -134 1z"/>
<path d="M252 6603 c-6 -10 -13 -33 -17 -50 l-7 -33 51 0 c49 0 50 1 60 38 17
59 15 62 -34 62 -32 0 -47 -5 -53 -17z"/>
<path d="M1781 6604 c-19 -16 -31 -35 -31 -50 0 -24 1 -24 100 -24 l100 0 0
25 c0 71 -107 101 -169 49z"/>
<path d="M3980 4770 c-74 -76 -180 -171 -235 -212 -55 -40 -249 -163 -430
-272 -182 -109 -357 -218 -390 -241 -134 -95 -229 -216 -267 -338 -18 -61 -20
-86 -15 -191 14 -283 121 -507 284 -593 86 -46 116 -51 373 -63 129 -6 298
-18 375 -26 306 -33 649 -120 888 -227 31 -14 57 -24 57 -21 0 2 -28 52 -61
111 -262 453 -443 1131 -466 1733 -5 150 9 347 33 458 2 12 1 21 -3 21 -5 -1
-69 -63 -143 -139z"/>
<path d="M4205 4368 c3 -18 12 -89 20 -158 43 -346 105 -680 175 -933 50 -180
127 -397 141 -397 11 0 38 99 61 220 28 141 30 452 6 585 -40 211 -126 425
-223 553 -43 58 -158 162 -178 162 -4 0 -5 -15 -2 -32z"/>
<path d="M1520 3446 c-32 -10 -35 -15 -48 -76 -8 -36 -15 -120 -15 -190 -1
-116 2 -134 36 -249 49 -161 56 -175 90 -179 54 -6 58 1 36 65 -55 158 -81
277 -86 403 -3 92 0 139 11 180 8 30 14 56 13 56 -1 1 -18 -3 -37 -10z"/>
<path d="M1353 3362 c-40 -26 -42 -29 -49 -92 -15 -129 -8 -219 21 -300 43
-120 78 -175 120 -187 19 -6 35 -9 35 -7 0 2 -13 37 -30 78 -67 170 -80 263
-60 440 6 49 9 90 7 92 -1 2 -21 -9 -44 -24z"/>
<path d="M251 526 c-39 -21 -50 -54 -51 -144 0 -80 1 -83 26 -92 65 -25 137 0
160 55 49 119 -37 235 -135 181z"/>
<path d="M3374 534 c-54 -12 -91 -95 -74 -169 12 -52 50 -85 98 -85 70 1 92
37 92 154 0 47 -4 87 -8 90 -14 8 -85 15 -108 10z"/>
<path d="M5703 530 c-43 -18 -63 -67 -63 -153 0 -75 1 -78 28 -88 48 -19 113
-5 145 31 27 31 29 37 25 101 -3 53 -9 74 -24 89 -23 24 -79 34 -111 20z"/>
<path d="M1020 527 c-52 -26 -74 -114 -46 -181 39 -94 164 -87 196 10 38 114
-54 219 -150 171z"/>
<path d="M1434 529 c-55 -16 -69 -42 -69 -126 0 -69 2 -76 28 -99 30 -26 83
-32 119 -13 11 6 26 26 34 44 15 36 20 180 7 188 -19 11 -91 15 -119 6z"/>
<path d="M3741 526 c-24 -13 -50 -51 -51 -73 0 -10 27 -13 105 -13 67 0 105 4
105 10 0 6 -7 24 -15 41 -25 47 -93 63 -144 35z"/>
<path d="M5304 530 c-26 -10 -54 -48 -54 -72 0 -16 11 -18 100 -18 97 0 100 1
100 23 -1 58 -79 94 -146 67z"/>
</g>
</svg>
